/* XPM */
static char *_122bb38590742c5ac813a11e004446fOhyTbvMxr2x6BktW[] = {
/* columns rows colors chars-per-pixel */
"28 25 9 1 ",
"  c None",
". c #101E29",
"X c #D17360",
"o c #4B9620",
"O c #EDA579",
"+ c #9AD47D",
"@ c #0763D0",
"# c #038FCD",
"$ c #F8F8F8",
/* pixels */
"                            ",
"                            ",
"                            ",
"                            ",
"          ..   ..           ",
"         .$$. .$$.          ",
"         .$$...$$.          ",
"        .$$$$$$$$$.         ",
"        .$$$$$$$$$$.        ",
"        .$$$OOOOOO$.        ",
"        .$$OOOOOOOO.        ",
"        .$$OO.OOO.O.        ",
"        .$$OX.OOO.X.        ",
"        .$$OOOOOOOO.        ",
"        .$$$OOOOOO$.        ",
"       ..$$$$$$$$$$.        ",
"      .++..........         ",
"      .+.###+###+..         ",
"      .o.OO.o###o.O.        ",
"      .o.OO.o###o.O.        ",
"       .o..@@@@@@..         ",
"        ...@....@.          ",
"          .O.  .O.          ",
"                            ",
"                            "
};
