/* XPM */
static char *_f2adaf79ede4ba7d221d4016a623f12EERsST8PEsiZxt71[] = {
/* columns rows colors chars-per-pixel */
"64 64 114 2 ",
"   c #403C37",
".  c black",
"X  c #D28500",
"o  c #D48700",
"O  c #D28A00",
"+  c #D48C00",
"@  c #D68D00",
"#  c #D88E00",
"$  c #D49100",
"%  c #D69200",
"&  c #DA9000",
"*  c #D89300",
"=  c #DA9500",
"-  c #DC9600",
";  c #DE9700",
":  c #D89800",
">  c #DA9A00",
",  c #DC9B00",
"<  c #DE9D00",
"1  c #E09900",
"2  c #E29A00",
"3  c #E09E00",
"4  c #E2A000",
"5  c #E4A100",
"6  c #E6A200",
"7  c #E2A500",
"8  c #E4A600",
"9  c #E8A400",
"0  c #EAA500",
"q  c #E6A800",
"w  c #E8A900",
"e  c #EAAB00",
"r  c #ECAC00",
"t  c #EEAE00",
"y  c #F0AF00",
"u  c #FFBA01",
"i  c #FFBB03",
"p  c #FFBB05",
"a  c #FFBC07",
"s  c #FFBC09",
"d  c #FFBD0B",
"f  c #FFBD0D",
"g  c #FFBE0F",
"h  c #FFBE11",
"j  c #FFBF13",
"k  c #FFBF15",
"l  c #FFC017",
"z  c #FFC119",
"x  c #FFC11B",
"c  c #FFC21D",
"v  c #FFC21F",
"b  c #FFC321",
"n  c #FFC323",
"m  c #FFC425",
"M  c #FFC427",
"N  c #FFC529",
"B  c #FFC52B",
"V  c #FFC62D",
"C  c #FFC72F",
"Z  c #FFC731",
"A  c #FFC833",
"S  c #FFC835",
"D  c #FFC937",
"F  c #FFC939",
"G  c #FFCA3B",
"H  c #FFCA3D",
"J  c #FFCB3F",
"K  c #FFCB41",
"L  c #FFC843",
"P  c #FFCC43",
"I  c #FFCD45",
"U  c #FFCD47",
"Y  c #FFC949",
"T  c #FFCE49",
"R  c #FFCE4B",
"E  c #FFCF4D",
"W  c #FFCF4F",
"Q  c #FFCC53",
"!  c #FFCD55",
"~  c #FECE5A",
"^  c #FECF5E",
"/  c #FFD051",
"(  c #FFD053",
")  c #FFD155",
"_  c #FED158",
"`  c #FED25A",
"'  c #FED25C",
"]  c #FED35E",
"[  c #FED060",
"{  c #FED360",
"}  c #FED062",
"|  c #FED462",
" . c #FED166",
".. c #FED564",
"X. c #FED566",
"o. c #FED268",
"O. c #FED36A",
"+. c #FED668",
"@. c #FED66A",
"#. c #FED76C",
"$. c #FED46E",
"%. c #FED76E",
"&. c #FED572",
"*. c #FED674",
"=. c #FED676",
"-. c #FED870",
";. c #FED872",
":. c #FED974",
">. c #FED976",
",. c #FED778",
"<. c #FED77A",
"1. c #FEDA78",
"2. c #FEDB7A",
"3. c #FED87C",
/* pixels */
"                                                                                                                                ",
"                                                                                                                                ",
"                                                                                                                                ",
"                                                                                                                                ",
"                                                                                                                                ",
"                                                                                                                                ",
"                                                                                                                                ",
"                                                                                                                                ",
"                                                                                                                                ",
"                                                                                                                                ",
"                                                                  . . . . .                                                     ",
"                                                              . . . . . . . . . .                                               ",
"                                                            . . . . D D D . . . . . . . .                                       ",
"                                                          . . . J J J J J J J J . . . . . . . .                                 ",
"                                                      . . . . K K K K K K K K K K K I T . . . . . .                             ",
"                                                    . . . . I I I I I I I I I I I E ( ~ { ..@.. . . .                           ",
"                                                  . . . I I I T T I T I I I T ( ) _ | ..#.-.@..._ . . .                         ",
"                                              . . . . T T E E E E E E T E Q _ ] ..o.#.>.#...] ) T K . . .                       ",
"                                            . . . . T E ( ( ( ( E E E ) ~ { ..@.-.=.-.o.| _ E I J F . . .                       ",
"                                          . . . T E E ( ) ( ( ( ( ) ] | ..#.&.>.>.#...] Q T K F D . . . . .                     ",
"                                        . . . T T E ( ( ) ) ) _ ] ..o.#.=.>.>.#...{ _ E I J F D D . . y . .                     ",
"                                      . . . I T E ( ( ) ) _ { ..@.#.>.,.,.-.@.| ~ ( T K J F D D . . . y . . .                   ",
"                                    . . . I T E ( ( ) ) ] ..@.-.>.2.2.>.#...] ) T I K J F D D . . . y y y . .                   ",
"                                  . . . I T E E ( ) ] ..@.-.=.2.3.>.#...{ _ E I P J J F D A Z . . y y y y . .                   ",
"                                . . . I T T E ( _ { ..#.>.,.3.>.-.o.| _ ( T I K J F F D A V . . . y y y y . .                   ",
"                              . . . I T T E ) ] ..@.-.>.,.,.-.@...] ) T I I K J F D D A V . . . y y y y y . .                   ",
"                            . . . I T T ( _ { ..-.=.,.>.&.@...] ) E I I P J J F D D Z V . . . y y y y y y . . .                 ",
"                          . . . I I T ) ] ..#.-.>.=.&.@...] ! E I I P K J F D D A Z V N . . y y y y y y y y . .                 ",
"                        . . . I Y ( _ | o.#.>.=.-.@...] ! E I I P K J J F D D Z V N M . . . y y y y y y y y . .                 ",
"                      . . . I E ) ]  .@.-.=.#.@...] ) E I I P K J J F D D A V V N M . . . y y y y y y y y . . .                 ",
"                    . . . T ( _ ....#.-.#...{ _ ( E I I K K J J F D D A Z V N M M . . . y y y y y y y y y . .                   ",
"                  . . . E ) { ..@.#.#...{ _ ( T I K J J F F F D D D Z V N N M n . . . y y y y y y y y y . . .                   ",
"                . . . ( _ {  .@.@...] _ ( T P J J F F F D D D A Z V N N M n n . . . y y y y y y y y y y . .                     ",
"              . . . ) ] ....o...] ) E I K F F F D D D D A Z V V N N M n n c c . . y y y y y y y y y y . . .                     ",
"            . . . _ ^ ..@.{ _ ( T I J D D D D D A Z Z V V N N M M n n c c x . . . y y y y y y y r r r . .                       ",
"            . . _ | ..{ _ ( T I F D D A Z Z Z V V V N N M M n n n c x x l . . . y y y r r r r r e e . . .                       ",
"          . . . ..] _ ( I P F D Z Z V V V V N N N M M n n n c c x x l h . . . r r r r e e e e 9 9 . . .                         ",
"          . . . ) E I J F Z V V N N N N M M M n n n n c c c x x k h h . . . r e e e e e e 9 9 9 . . .                           ",
"          . . . . . D V N M M M M M M n n n n c c c c x l l h h h f f . . e e e 9 9 9 6 6 6 6 6 . .                             ",
"          . . . . . . . n n n n n n c c c c x x x l k k h h f f d d . . . 9 6 6 6 6 6 6 6 6 6 . . .                             ",
"        . . . e e . . . . . . c x x x x x l k k h h h f f f d a a . . . 6 6 6 6 6 6 6 4 4 4 . . .                               ",
"        . . e e e e e . . . . . . . . h h h h f f f d d a p p p . . . 6 6 6 4 4 4 4 2 2 2 . . .                                 ",
"        . . q q q q q q q q . . . . . . . . d d a a p i i i i . . . 4 4 4 4 4 2 2 2 2 2 . . .                                   ",
"        . . 7 7 8 8 8 8 8 8 8 8 8 8 . . . . . . . . i i i i . . . 4 4 2 2 2 2 2 2 2 2 . . .                                     ",
"        . . 4 4 4 4 4 4 7 7 7 7 7 7 7 7 7 . . . . . . . . . . . 2 2 2 2 2 2 - - - - . . .                                       ",
"        . . . 3 3 3 3 3 3 3 3 3 4 4 4 7 7 7 7 7 7 . . . . . . . - - - - - - - - - . . .                                         ",
"          . . < < < < < < < < < < 3 3 3 3 3 3 3 3 3 3 . . . . - - - - - - - * * . . .                                           ",
"          . . - - - , , , , , , , , , < < < < < < < < < . . . - - = * * * * # . . .                                             ",
"          . . . = = = = = = = = = > , , , , , , > > , , , . . * # # # # # # . . .                                               ",
"            . . * * * * * * = = = * * = = * * * > > > > > . . # @ @ @ @ @ . . .                                                 ",
"            . . . . . % % % % * * * * * % * * * * * * * * . . @ @ @ @ o . . .                                                   ",
"              . . . . . . . . . @ @ % % % % % % % % % % % . . o X X X . . .                                                     ",
"                    . . . . . . . . . . O O % % % % % % % . . X X X . . .                                                       ",
"                              . . . . . . . . O O O O O . . . . . . . .                                                         ",
"                                      . . . . . . . . . . . . . . . .                                                           ",
"                                            . . . . . . . . . . .                                                               ",
"                                                        . . .                                                                   ",
"                                                                                                                                ",
"                                                                                                                                ",
"                                                                                                                                ",
"                                                                                                                                ",
"                                                                                                                                ",
"                                                                                                                                ",
"                                                                                                                                "
};
