/* XPM */
static char *c600b8e7e9b94a2ada1dd915b3131c280daMZhCzmY48arWm[] = {
/* columns rows colors chars-per-pixel */
"64 64 25 1 ",
"  c #403C37",
". c #62784A",
"X c #171A0F",
"o c #4E5332",
"O c #243117",
"+ c #3D3734",
"@ c #9F8965",
"# c #BD7247",
"$ c #E6DAAD",
"% c #302D21",
"& c #80592D",
"* c #AB7B44",
"= c #CD9757",
"- c #796E67",
"; c #84AE56",
": c #364922",
"> c #FDFFD6",
", c #E2B179",
"< c #3A1F1D",
"1 c #6B3840",
"2 c #B34D5C",
"3 c #8D4953",
"4 c #A47556",
"5 c #9C8C81",
"6 c white",
/* pixels */
"                                                                ",
"                                                                ",
"                                                                ",
"                   .                          .                 ",
"                  X..                        ..X                ",
"                  Xo..                      ..oX                ",
"                 Xooo..                    ..oooX               ",
"                 Xooo...                  ...oooX               ",
"                 Xoooo...                ...ooooX               ",
"                XOooooo...              ...oooooOX              ",
"                XOooooo....................oooooOX              ",
"                XOoooooo..................ooooooOX              ",
"                XOoooooo..oooooooooooooo..ooooooOX              ",
"                XOoooOo.oooooooooooooooooo.oooooOX              ",
"                XOOoO.ooooooooooooooooooooooOoooOX              ",
"                XOOO.ooooooooooooooooooooooo.OoOOX              ",
"                XOOO.oooooooooooooooooooooooo.OOOX              ",
"                 XO.oooooooo..........ooooooo.OOX               ",
"                 XXooooooo..++++@@@+++..oooooo.XX               ",
"                 Xoooooo..@@@++@@@@@++++..ooooooX               ",
"                Xoooooo.##@@@@@@@@@@@+++++.ooooooX              ",
"                Xooooo.##@@@$%%$$$$%%@+++++.oooooX              ",
"               Xoooooo.&&**=$$$$$$$$$$--+++.ooooooX             ",
"              Xooooooo.##==*=$$$$$$$$$$--+@.oooooooX            ",
"             Xooooooo##==%%;:>$$$$$$>:;%%$$@XoooooooX           ",
"            XOOoooooX&****;;:;>$$$$>;:;;>>$$@XoooooOOX          ",
"             XXOOoooX#====,;:;;$$$$;;:;>$$$$@XoooOOXX           ",
"               XXOOOOX&***=,$$$$>>$$$$$$$$$@XOOOOXX             ",
"                 XXOOOX#==$$$$$$%%$$$$$$$$@XOOOXX               ",
"                   XXXXX@$$$$$$$$$$$$$$$$@XXXXX                 ",
"                        XXX$$$$$$$$$$$$XXX                      ",
"                           XXXXXXXXXXXX                         ",
"                          XOO<11<<11<OOX                        ",
"                         XOO<231<<132<OOX       $>              ",
"                        XOO<223<@@<322<OOX     $$$>             ",
"                       XOOO<231<@@<132<OOOX     $$>             ",
"                       XOOO<11<@@@@<11<OOOX     @$$             ",
"                      XoooOO<<@@$$@#<<OOoooX    @$$             ",
"                      XooooOX@@$$$$##XOooooX    @$@             ",
"                     XoooooX@@$$$$$=#&XoooooX  %$$              ",
"                     XooooX@@$$$$$==&##XooooX%%@@%              ",
"                    XoooooX@$$$$$$**==&XoooooX@@%               ",
"                    XoooooX$$$$$$$==**=XoooooX@%                ",
"                    XooooX$$@$$$$$$$=#==XooooX%                 ",
"                   XOooooX$$@$$>@@>$$@$$XooooOX                 ",
"                   XOooooX$$@%$>@@>$%@$$XooooOX                 ",
"                  XOOooooX$$$%>>%%>>%$$$XooooOOX                ",
"                 XOOoooooX=$$@%>%%>%@$$$XoooooOOX               ",
"                XOooooooX&**$$@%%%%@$$$$@XoooooOOX              ",
"               XoooooOooX#=$$$$@@@@$$$$$@XooOooooOX             ",
"             XXoooooooooX4$$$$$$$$$$$$$$@XoooooooooXX           ",
"           XXooooOooooooX@$$$$$$$$$$$$$$@XooooooOooooXX         ",
"          XoooooooooOoooX@$$$$$$$$$--$$$@XoooOoooooooooX        ",
"         XoooooOooooooooX@$$$$$$$----$$$@OooooooooOoooooX       ",
"          XXooOooooOooooOX$$$$$>>55--$$$XOooooOooooOooXX        ",
"            XXOOooOOooooOX$$$$$@@++---$$XOooooOOooOOXX          ",
"              XXOOOOOOOOOX@$$$@%%%%+--$@XOOOOOOOOOXX            ",
"                XXXOOOOOOX@@$$%    %--@@XOOOOOOXXX              ",
"                   XXXXXX %@@@%    %++@% XXXXXX                 ",
"                          %>>>%    %>>>%                        ",
"                           %%%      %%%                         ",
"                                                                ",
"                                                                ",
"                                                                "
};
