/* XPM */
static char *_cc70115ffad492d917ab95e32ba3890KHaG9bIuJsdhxSRR[] = {
/* columns rows colors chars-per-pixel */
"64 64 256 2 ",
"   c gray85",
".  c black",
"X  c #191D2B",
"o  c #EEC3B0",
"O  c #DDDDDD",
"+  c #CC4B13",
"@  c #D8B723",
"#  c #1C202E",
"$  c #462D1C",
"%  c #131313",
"&  c #090909",
"*  c #D49D85",
"=  c #313F45",
"-  c #573824",
";  c #080C0E",
":  c #3B4B55",
">  c gray2",
",  c #15191A",
"<  c #090604",
"1  c #0A0F11",
"2  c #0E0E0E",
"3  c #111617",
"4  c #040809",
"5  c #845F48",
"6  c #000002",
"7  c #060403",
"8  c #F4C7B3",
"9  c #65372D",
"0  c #C90000",
"q  c #815C46",
"w  c #5F3F2B",
"e  c #2A2018",
"r  c #4D311F",
"t  c white",
"y  c #242835",
"u  c #040201",
"i  c #1F130B",
"p  c #452D1D",
"a  c #79553E",
"s  c #6D4B36",
"d  c #7F5C46",
"f  c #24160D",
"g  c #6B4933",
"h  c #75513B",
"j  c #805C47",
"k  c #311F13",
"l  c #603026",
"z  c #523625",
"x  c #816A59",
"c  c #25282A",
"v  c #4E4239",
"b  c #1F2A2E",
"n  c #718993",
"m  c #1F150F",
"M  c #010102",
"N  c #05090A",
"B  c #667A82",
"V  c #60412D",
"C  c #8C654D",
"Z  c #181C29",
"A  c #6D838C",
"S  c #6E8A96",
"D  c #6E8189",
"F  c gray15",
"G  c #070B0D",
"H  c #020202",
"J  c #05080A",
"K  c #000001",
"L  c #87A3B0",
"P  c #88624B",
"I  c #06090B",
"U  c #050301",
"Y  c #855F48",
"T  c #CECECE",
"R  c #7E573F",
"E  c #101010",
"W  c #27180E",
"Q  c #354045",
"!  c #26170F",
"~  c #78533C",
"^  c #2C1D12",
"/  c #5C6F76",
"(  c #442C1B",
")  c #402B1E",
"_  c #150E0A",
"`  c #1C0F07",
"'  c #19120E",
"]  c #855D44",
"[  c #60402B",
"{  c #2D2D2D",
"}  c #815C45",
"|  c #3D2D23",
" . c #7D5C46",
".. c #4A301F",
"X. c #261E18",
"o. c #0E0B09",
"O. c #4C372B",
"+. c #6C4A33",
"@. c #86614A",
"#. c #6E5341",
"$. c #815E47",
"%. c #886049",
"&. c #8E664E",
"*. c #312B27",
"=. c #2C1A0F",
"-. c #8A644E",
";. c #694630",
":. c #1C2E35",
">. c #010A0F",
",. c #202729",
"<. c #503524",
"1. c #110B07",
"2. c #89624B",
"3. c #88624A",
"4. c #624A3A",
"5. c #1E1E1E",
"6. c #4A3629",
"7. c #010D13",
"8. c #4D3220",
"9. c #292624",
"0. c #1F1007",
"q. c #191009",
"w. c #1B1410",
"e. c #1E1612",
"r. c #856049",
"t. c #5C4232",
"y. c gray13",
"u. c #21150C",
"i. c #2B1C13",
"p. c #28363B",
"a. c #31464E",
"s. c #050201",
"d. c #25170E",
"f. c #724F39",
"g. c #7A543D",
"h. c #A47E64",
"j. c #0A0D0F",
"k. c #030100",
"l. c #65422C",
"z. c #7D5A46",
"x. c #39271C",
"c. c #6C4A34",
"v. c #6F4B35",
"b. c #191D20",
"n. c #93715A",
"m. c #997054",
"M. c #221B15",
"N. c #212B2F",
"B. c #5E402D",
"V. c #222222",
"C. c #101415",
"Z. c #694C39",
"A. c #675041",
"S. c #594233",
"D. c #553A29",
"F. c #222525",
"G. c #3B484F",
"H. c #332217",
"J. c #1A1E2C",
"K. c #7F5C47",
"L. c #89654E",
"P. c #8B674F",
"I. c #3B464B",
"U. c #5E3F2B",
"Y. c #724C33",
"T. c #65442F",
"R. c #704D37",
"E. c #866149",
"W. c #503829",
"Q. c #0B0B0B",
"!. c #875F45",
"~. c #4D646D",
"^. c #312013",
"/. c #0C0907",
"(. c #342214",
"). c #A0775D",
"_. c #725745",
"`. c #81624E",
"'. c #1B1B1B",
"]. c #825B42",
"[. c #1E120A",
"{. c #614B3C",
"}. c #6F4C37",
"|. c #46545A",
" X c #6F4E39",
".X c #2F1C10",
"XX c #120E0B",
"oX c #5B3D2B",
"OX c #7F5A43",
"+X c #694731",
"@X c #0E1213",
"#X c #0F1517",
"$X c #B88C6F",
"%X c #3A464B",
"&X c #140D08",
"*X c #160E08",
"=X c #23160D",
"-X c #6E4D38",
";X c #492F1D",
":X c #30251D",
">X c #2B1E16",
",X c #2B1F17",
"<X c #26180F",
"1X c #AD8266",
"2X c #24160E",
"3X c #05090B",
"4X c #5E7178",
"5X c #6C868F",
"6X c #5B6D73",
"7X c #202C31",
"8X c #232E34",
"9X c #1E201F",
"0X c #31261E",
"qX c #391D0A",
"wX c #1C2123",
"eX c #455258",
"rX c #708C97",
"tX c #392313",
"yX c #47362B",
"uX c #030404",
"iX c #57686F",
"pX c #755643",
"aX c #28373C",
"sX c #131719",
"dX c #253033",
"fX c #2A3337",
"gX c #5D6F76",
"hX c #62777E",
"jX c #4B5B60",
"kX c #583B27",
"lX c #6A8189",
"zX c #4C3323",
"xX c #4C2F1C",
"cX c #697D85",
"vX c #677B83",
"bX c #60737A",
"nX c #52636B",
"mX c #331E12",
"MX c #040302",
"NX c #462C1B",
"BX c #1C120B",
"VX c #6B4932",
"CX c #191D1F",
"ZX c #687C83",
"AX c #553926",
"SX c #0C0F10",
"DX c #171A1C",
"FX c #492F1E",
"GX c #4A2F1D",
"HX c #5B6C72",
"JX c #856048",
"KX c #5D4332",
"LX c #2D393E",
"PX c #62767E",
"IX c #291D12",
"UX c None",
/* pixels */
"3 UX3 3 3 UXUXUXUXUXUXUXUXUXUXUXUXUXUXUXUXUXUXUXUXUXUXUXUXUXUXUXUXUXUXUXUXUXUXUXUXUXUXUXUXUXUXUXUXUXUXUXUXUXUXUXUXUXUX3 3 3 UX3 ",
"3 UXUX. 3 3 3 3 UXUXUXUXUXUXUXUXUXUXUXUXUXUXUXUXUXUXUXUXUXUXUXUXUXUXUXUXUXUXUXUXUXUXUXUXUXUXUXUXUXUXUXUXUXUXUXUX3 3 3 3 . UXUX3 ",
"3 UXUXUXUXUX. 3 3 3 3 UXUXUXUXUXUXUXUXUXUXUXUXUXUXUXUXUXUXUXUXUXUXUXUXUXUXUXUXUXUXUXUXUXUXUXUXUXUXUXUXUXUX3 3 3 3 . UXUXUXUXUX3 ",
"3 UXUXUXUXUXUXUXUX. 3 3 3 3 3 UXUXUXUXUXUXUXUXUXUXUXUXUXUXUXUXUXUXUXUXUXUXUXUXUXUXUXUXUXUXUXUXUXUX3 3 3 3 3 . UXUXUXUXUXUXUXUX3 ",
"3 UXUXUXUXUXUXUXUXUXUXUXUX. 3 3 3 3 3 . UXUXUXUXUXUXUXUXUXUXUXUXUXUXUXUXUXUXUXUXUXUXUXUX. 3 3 3 3 3 . UXUXUXUXUXUXUXUXUXUXUXUX3 ",
"3 UXUXUXUXUXUXUXUXUXUXUXUXUXUXUX3 3 3 3 3 3 UXUXUXUXUXUXUXUXUXUXUXUXUXUXUXUXUXUXUXUX3 3 3 3 3 3 UXUXUXUXUXUXUXUXUXUXUXUXUXUXUX3 ",
"3 UXUXUXUXUXUXUXUXUXUXUXUXUXUXUX3 3 UXUX3 3 3 3 3 3 3 UXUXUXUXUXUXUXUXUXUX3 3 3 3 3 3 3 UXUX3 3 UXUXUXUXUXUXUXUXUXUXUXUXUXUXUX3 ",
"3 UXUXUXUXUXUXUXUXUXUXUXUXUXUX3 3 3 UX'.. 3 UXUX3 3 3 . UXUXUXUXUXUXUXUX. 3 3 3 UXUX3 . '.UX3 3 3 UXUXUXUXUXUXUXUXUXUXUXUXUXUX3 ",
"3 UXUX% 3 3 3 3 3 UXUXUXUXUXUX3 3 3 2 . . 3 UXUXUX. N.@XUXUXUXUXUXUXUXUX@XN.. UXUXUX3 . . 2 3 3 3 UXUXUXUXUXUX3 3 3 3 3 % UXUX3 ",
"3 UX. 3 3 H & % 3 3 UXUXUXUXUX3 3 3 . 3 3 . UXUXw.S.F.4 UXUXUXUXUXUXUXUX4 F.S.w.UXUX. 3 3 . 3 3 3 UXUXUXUXUX3 3 % & H 3 3 . UX3 ",
"3 . 3 . UXUXUXUX. 3 3 UXUXUXUX3 3 UXUX. . UXUXM.#.5 5 J UXUXUXUXUXUXUXUXJ , mX#.M.UXUX. . UXUX3 3 UXUXUXUX3 3 . UXUXUXUX. 3 . 3 ",
"3 3 . UXUXUXUXUXUXM 3 UXUXUXUX3 3 UXUXUXUXUXe r m.5 5 j.UXUXUXUXUXUXUXUXj.5 r m.r e UXUXUXUXUX3 3 UXUXUXUX3 M UXUXUXUXUXUX. 3 3 ",
"3 3 . UXUXUXUXUXUXUX. 3 UXUXUX3 3 UXUXUXUXUXe r OX5 5 1 UXUXUXUXUXUXUXUX1 5 5 OXr e UXUXUXUXUX3 3 UXUXUX3 . UXUXUXUXUXUXUX. 3 3 ",
"3 UXUXUXUXF F { UXUX. 3 UXUXUX3 3 UXUXUXUXUXe r r.5 5 I UXUXUXUXUXUXUXUXI 5 5 r.r e UXUXUXUXUX3 3 UXUXUX3 . UXUX{ F F UXUXUXUX3 ",
"3 UXUXUX5.V.E uX> . . 3 UXUXUX3 3 UXUXUXUXUXe r 5 5 5 N UXUXUXUXUXUXUXUXN 5 5 5 r e UXUXUXUXUX3 3 UXUXUX3 . . > uXE V.5.UXUXUX3 ",
"3 3 UXUX. . . . . . . UXUXUXUX3 3 UXUX. x UXe r 5 5 5 ; UXUXUXUXUXUXUXUX; 5 5 5 r e UXz . UXUX3 3 UXUXUXUX. . . . . . . UXUX3 3 ",
". 3 . UXUX. . . . . UXUXUXUX3 3 UXUX/.`.x UXe r 5 5 5 J UXUXUXUXUXUXUXUXJ 5 5 5 r e UXz `./.UXUX3 3 UXUXUXUX. . . . . UXUX. 3 . ",
". 3 . UXUXUX. . . UXUXUXUXUX3 UXUX:XyXq x UXe r 5 5 5 N UXUXUXUXUXUXUXUXN 5 5 5 r e UXz q q :XUXUX3 UXUXUXUXUX. . . UXUXUX. 3 . ",
"XX_.3 . UXUXUXUXUXUXUXUXUX3 3 UX. A.1Xq x UXe r 5 5 5 N UXUXUXUXUXUXUXUXN 5 5 5 r e UXz q 1XA.. UX3 3 UXUXUXUXUXUXUXUXUX. 3 _.XX",
"o.n.3 3 . UXUXUXUXUXUXUX3 3 UXUX[.-X$.q x UXe r 5 5 5 N UXUXUXUXUXUXUXUXN 5 5 5 r e UXz q $.-X[.UXUX3 3 UXUXUXUXUXUXUX. 3 3 n.o.",
"k.<.).3 3 3 . . . . 3 3 3 . UXUXi s q q x UXe r 5 5 5 J UXUXUXUXUXUXUXUXJ 5 5 5 r e UXz q q s i UXUX. 3 3 3 . . . . 3 3 3 ).<.k.",
"u ( } P.D.3 3 3 3 3 3 . {.X.UXUXi s q q x UXe r 5 5 5 ; UXUXUXUXUXUXUXUX; 5 5 5 r e UXz q q s i UXUXX.{.. 3 3 3 3 3 3 D.P.} ( u ",
"u p a  .v.W UXUXUX4.$Xh.L.v UXUXi s q q x UXe r 5 5 5 G UXUXUXUXUXUXUXUXG 5 5 5 r e UXz q q s i UXUXv L.h.$X4.UXUXUXW v. .a p u ",
"u p a d g f UXUXUX=.}.z.U.w UXUXi s q q x UXe r 5 5 5 G UXUXUXUXUXUXUXUXG 5 5 5 r e UXz q q s i UXUXw U.z.}.=.UXUXUXf g d a p u ",
"u p a d g f UXUXUXk h j w w UXUXi s q q x UXe r 5 5 5 I UXUXUXUXUXUXUXUXI 5 5 5 r e UXz q q s i UXUXw w j h k UXUXUXf g d a p u ",
"u p a d g f UXUXUXk h j w w UXUXi s q q x UXe r 5 5 5 N UXUXUXUXUXUXUXUXN 5 5 5 r e UXz q q s i UXUXw w j h k UXUXUXf g d a p u ",
"u p a d g f UXUXUXk h j w w UXUXi s q q x UXe r 5 5 5 J UXUXUXUXUXUXUXUXJ 5 5 5 r e UXz q q s i UXUXw w j h k UXUXUXf g d a p u ",
"u p a d g f UXUXUXk h j w w UXUXi s q q x UXe r 5 5 5 c UXUXUXUXUXUXUXUX1 5 5 5 r e UXz q q s i UXUXw w j h k UXUXUXf g d a p u ",
"u p a d g f UXUXUXk h j w w UXUXi s q q x UXe r 5 5 5 c UXUXUXUXUXUXUXUXN 5 5 5 r e UXz q q s i UXUXw w j h k UXUXUXf g d a p u ",
"u p a d g f UXUXUXk h j w w UXUXi s q q x UXe r 5 5 5 c UXUXUXUXUXUXUXL 1 5 5 5 r e UXz q q s i UXUXw w j h k UXUXUXf g d a p u ",
"u p a d g f UXUXUXk h j w w UXUXi s q q x UXe r 5 5 5 c UXUXUXUXUXUXL L rX5Xb KXr e UXz q q s i UXUXw w j h k UXUXUXf g d a p u ",
"u p a d g f UXUXUXk h j w w UXUXi s q q x UXe r 5 5 5 c UXUXUXUXUXL A A B B b b r e UXz q q s i UXUXw w j h k UXUXUXf g d a p u ",
"u p a d g f UXUXUXk h j w w UXUXi s q q x UXe r 5 5 5 c UXUXUXUXUXS A uXB B lXb r e UXz q q s i UXUXw w j h k UXUXUXf g d a p u ",
"u p a d g f UXUXUXk h j w w UXUXi s q q x UXe r 5 5 5 c UXUXUXUXS A A uXB B cXb r e UXz q q s i UXUXw w j h k UXUXUXf g d a p u ",
"u p a d g f UXUXUXk h j w w UXUXi s q q x UXe r 5 5 5 c UXUXUXUXS A gXCXSXB 4Xb r e UXz q q s i UXUXw w j h k UXUXUXf g d a p u ",
"u p a d g f UXUXUXk h j w w UXUXi s q q x UXe r 5 5 5 c UXUXUXUXS A bXwXsXB 6Xb r e UXz q q s i UXUXw w j h k UXUXUXf g d a p u ",
"u p a d g f UXUXUXk h j w w UXUXi s q q x UXe r 5 5 5 c UXUXUXUXS A fX. . B hXb r e UXz q q s i UXUXw w j h k UXUXUXf g d a p u ",
"u p a d g f UXUXUXk h j w w UXUXi s q q x UXe r 5 5 5 c UXUXUXUXS D , . . B eXb r e UXz q q s i UXUXw w j h k UXUXUXf g d a p u ",
"u p a d g f UXUXUXk h j w w UXUXi s q q x UXe r 5 5 5 c UXUXUXUXaXD D . . B jXb r e UXz q q s i UXUXv w j h k UXUXUXf g d a p u ",
"u p a d g f UXUXUXk h j w w UXUXi s q q x UXe r 5 5 5 c UXUXUXUXUX= D ZXPXvXHXb r e UXz q q s i UXUXv w j h k UXUXUXf g d a p u ",
"u p a d g f UXUXUXk h j w w UXUXi s q q x UXe r 5 5 5 c UXUXUXUXUXUXnXD D iX8XIXr e UXz q q s i UXUXv w j h k UXUXUXf g d a p u ",
"u p a d g f UXUXUXk h j w w UXUXi s q q x UXe r 5 5 5 c UXUXUXUXUXUX9X7XLXdX0XqXr e UXz q q s i UXUXv w j h k UXUXUXf g d a p u ",
"u p a d g f UXUXUXk h j w w UXUXi s q q x UXe r 5 5 5 c UXUXUXUXUXUXUXUX. r tXVXr e UXz q q s i UXUXv w j h k UXUXUXf g d a p u ",
"u p a d g f UXUXUXk h j w w UXUXi s q q x UXe r 5 5 5 c UXUXUXUXUXUXUXUX. r zXY r e UXz q q s i UXUXv w j h k UXUXUXf g d a p u ",
"u p a d g f UXUXUXk h j w w UXUXi s q q x UXe r 5 5 5 c UXUXUXUXUXUXUXUX. r ;XJXr e UXz q q s i UXUXv w j h k UXUXUXf g d a p u ",
"u p a d g f UXUXUXk h j w w UXUX` R.%.q x UXe r 5 5 5 c UXUXUXUXUXUXUXUX. r r pXr e UXz q %.R.` UXUXv w j h k UXUXUXf g d a p u ",
"u p a d g f UXUXUX.Xg.2.l.w UXUXe.6.| *.. . . . . 5 5 c UXUXUXUXUXUXUXUX. r - . . . . . *.| 6.e.UXUXv l.2.g..XUXUXUXf g d a p u ",
"u $ R E.Y.0.UXUXUX,XO.. . . y.. . %Xn C.. . . . . 5 5 . UXUXUXUXUXUXUXUX. r . . . . . . C.n %X. . y.. . . O.,XUXUXUX0.Y.E.R $ u ",
"U ) t.. . 9.. . . . G.n ,.. . . . I.n j.. . . . . 5 5 . UXUXUXUXUXUXUXUX. r - . . . . . j.n I.. . . . ,.n G.. . . . 9.. . t.) U ",
"H . Q n . . M . . M |.n b.. . . . b :.K . . . _ . 5 5 . UXUXUXUXUXUXUXUX. r xX. _ . . . K :.b . . . . b.n |.M . . M . . n Q . H ",
". . / n . . . . . M p.a.3X. . . . 7 ! i.x UXe +X3.5 5 . UXUXUXUXUXUXUXUX. r $ 3.+Xe UXz i.! 7 . . . . 3Xa.p.M . . . . . n / . . ",
". uX= ~.. . . . . . . u &Xw UXUXu.~ C AXx UXe V 5 5 5 . UXUXUXUXUXUXUXUX. r NX5 V e UXz C C ~ u.UXUXMX&Xu . . . . . . . ~.= uX. ",
". K >.7.M . UXUXUX<X X-.;.w UXUXi s q z x UXe V 5 5 5 . UXUXUXUXUXUXUXUX. r ;X5 V e UXz C q s i UXUXv ;.-. X<XUXUXUX. M 7.>.K . ",
". 1.H.W.oX2XUXUXUX^.h j w w UXUXi s q z x UXe V 5 5 5 . UXUXUXUXUXUXUXUX. r FX5 V e UXz C q s i UXUXv w j h ^.UXUXUX2XoXW.H.1.. ",
"s.8.] @.c.f UXUXUXk h j w w UXUXi s q z x UXe V 5 5 5 . UXUXUXUXUXUXUXUX. r ;X5 V e UXz C q s i UXUXv w j h k UXUXUXf c.@.] 8.s.",
"u p a d g f UXUXUXk h j w w UXUXi s q z x UXe V Y 5 5 . UXUXUXUXUXUXUXUX. DXGXY V e UXz C q s i UXUXv w j h k UXUXUXf g d a p u ",
"u p a d g f UXUXUXk h j w w UXUXi s q z x UXe T.Z.=X#X. UXUXUXUXUXUXUXUX. #X=XZ.T.e UXz C q s i UXUXv w j h k UXUXUXf g d a p u ",
"u p a d g f UXUXUXk h j w w UXUXi f.&.kXx UXe . m UXUXUXUXUXUXUXUXUXUXUXUXUXUXm . e UXz C &.f.i UXUXv w j h k UXUXUXf g d a p u ",
"u p a d g f UXUXUXk h K.[ w UXUXq.x.' . x UXUXUXUXUXUXUXUXUXUXUXUXUXUXUXUXUXUXUXUXUXUXm C ' x.q.UXUXv [ K.h k UXUXUXf g d a p u ",
"u p a d g f UXUXUX(.].P z w UXUX. m UXUXUXUXUXUXUXUXUXUXUXUXUXUXUXUXUXUXUXUXUXUXUXUXUXUXUXUXUXUXUXUX7 z P ].(.UXUXUXf g d a p u ",
"u p a d +.d.UXUXUXBXm 7 . m UXUXUXUXUXUXUXUXUXUXUXUXUXUXUXUXUXUXUXUXUXUXUXUXUXUXUXUXUXUXUXUXUXUXUXUXUXm 7 m m UXUXUXd.+.d a p u ",
"u ..!.P B.*XUXUXUXm m UXUXUXUXUXUXUXUXUXUXUXUXUXUXUXUXUXUXUXUXUXUXUXUXUXUXUXUXUXUXUXUXUXUXUXUXUXUXUXUXUXUXUXUXUXUXUX*XB.P !...u ",
"U ^ >X< . m UXUXUXUXUXUXUXUXUXUXUXUXUXUXUXUXUXUXUXUXUXUXUXUXUXUXUXUXUXUXUXUXUXUXUXUXUXUXUXUXUXUXUXUXUXUXUXUXUXUXUXUX. . < >X^ U ",
". . UXUXUXUXUXUXUXUXUXUXUXUXUXUXUXUXUXUXUXUXUXUXUXUXUXUXUXUXUXUXUXUXUXUXUXUXUXUXUXUXUXUXUXUXUXUXUXUXUXUXUXUXUXUXUXUXUXUXUXUX. . "
};
