/* XPM */
static char *b9a08c9cc7b5417fa909e9f483ee35186sM0sTufbvJyQWXM[] = {
/* columns rows colors chars-per-pixel */
"64 64 256 2 ",
"   c gray85",
".  c black",
"X  c #261D17",
"o  c #5F7178",
"O  c #596B72",
"+  c #7F9BA7",
"@  c #212A2F",
"#  c #A37A61",
"$  c #5D6F76",
"%  c #1C2529",
"&  c #654C3C",
"*  c #43342A",
"=  c #825F48",
"-  c #5B6D74",
";  c #0A0704",
":  c #516269",
">  c #1A2325",
",  c #36444A",
"<  c #687981",
"1  c #4E321F",
"2  c #372B23",
"3  c #4C5C62",
"4  c #241911",
"5  c #5A6C73",
"6  c #785642",
"7  c #2A363B",
"8  c #A2C6D5",
"9  c #492E1C",
"0  c #1F282C",
"q  c #805C47",
"w  c #70503D",
"e  c #151E21",
"r  c gray14",
"t  c #191D2B",
"y  c #13191C",
"u  c #2E4148",
"i  c #222D31",
"p  c #563925",
"a  c #120B07",
"s  c #63422C",
"d  c #2C221B",
"f  c #4C3221",
"g  c #54666C",
"h  c #7E5C47",
"j  c #2D3940",
"k  c #68462F",
"l  c #6F4F3C",
"z  c #7A5742",
"x  c #222222",
"c  c #1B2427",
"v  c #262A2C",
"b  c #0F0906",
"n  c #AB8267",
"m  c #EEC3B0",
"M  c #402613",
"N  c #181818",
"B  c #070403",
"V  c #3C210F",
"C  c #57686F",
"Z  c #3A494F",
"A  c #3B2D24",
"S  c #161616",
"D  c #142025",
"F  c #748D97",
"G  c #273338",
"H  c #391F0C",
"J  c gray6",
"K  c #9C755A",
"L  c #303E42",
"P  c #DDDDDD",
"I  c #533522",
"U  c #17110C",
"Y  c #58696F",
"T  c #62412A",
"R  c #54646A",
"E  c #253136",
"W  c #050302",
"Q  c #CC4B13",
"!  c #0B0E0F",
"~  c #D8B723",
"^  c #1C202E",
"/  c #060809",
"(  c #212122",
")  c #090909",
"_  c #334047",
"`  c #D49D85",
"'  c #3B4B55",
"]  c #0F1213",
"[  c #473122",
"{  c #21160F",
"}  c #0A0806",
"|  c #050708",
" . c #020202",
".. c #000002",
"X. c #F4C7B3",
"o. c #65372D",
"O. c #C90000",
"+. c #060607",
"@. c #020101",
"#. c white",
"$. c #503321",
"%. c #242835",
"&. c #543623",
"*. c #775540",
"=. c #5E3E28",
"-. c #030201",
";. c #7B5944",
":. c #4B301E",
">. c #64432D",
",. c #452C1C",
"<. c #785641",
"1. c #7C5A45",
"2. c #61402B",
"3. c #76543F",
"4. c #7D5B45",
"5. c #75533E",
"6. c #593A26",
"7. c #020303",
"8. c #7A5843",
"9. c #603026",
"0. c #010203",
"q. c #7B5843",
"w. c #181C29",
"e. c #202223",
"r. c gray10",
"t. c #010102",
"y. c #62767D",
"u. c #435055",
"i. c #282C2E",
"p. c #735441",
"a. c #7C5944",
"s. c #030405",
"d. c #7D5A45",
"f. c #182023",
"g. c #CECECE",
"h. c #7B5842",
"j. c #74523D",
"k. c #593B26",
"l. c #010100",
"z. c #819DA9",
"x. c #5D3E28",
"c. c #242628",
"v. c #26292B",
"b. c #31261E",
"n. c #76533E",
"m. c #765440",
"M. c #AE8367",
"N. c #7B5945",
"B. c #9B745A",
"V. c #593C28",
"C. c #65432D",
"Z. c #647880",
"A. c #010000",
"S. c #7C5943",
"D. c #785540",
"F. c #7A5641",
"G. c #6E868E",
"H. c #1A1E2C",
"J. c #A97F65",
"K. c #745541",
"L. c #84A0AA",
"P. c #393F40",
"I. c #432C1C",
"U. c #8BA8B4",
"Y. c #403128",
"T. c #687E86",
"R. c #1F2122",
"E. c #1E2325",
"W. c #5F412D",
"Q. c #5D3C28",
"!. c #5C3E2B",
"~. c #7C5A44",
"^. c #49585E",
"/. c #593824",
"(. c #5B3B26",
"). c #67442C",
"_. c #472F1F",
"`. c #765540",
"'. c #17262C",
"]. c #775541",
"[. c #88A4AF",
"{. c #7A5844",
"}. c #563724",
"|. c #75543F",
" X c #7E5B45",
".X c #563723",
"XX c #60737B",
"oX c #22353C",
"OX c #27363B",
"+X c #77543F",
"@X c #755641",
"#X c #1E272B",
"$X c #0B0B0B",
"%X c #583A26",
"&X c #4D3726",
"*X c #74533E",
"=X c #60747C",
"-X c #2B383E",
";X c #60402B",
":X c #0E1C21",
">X c #624534",
",X c #624839",
"<X c #553723",
"1X c #6A4730",
"2X c #977056",
"3X c #95725A",
"4X c #1E2424",
"5X c #A8CEDD",
"6X c #1E3038",
"7X c #603E28",
"8X c #839FAB",
"9X c #3A4041",
"0X c #899AA0",
"qX c #412919",
"wX c #51321F",
"eX c #AF8468",
"rX c #72503C",
"tX c #1F1712",
"yX c #323A3D",
"uX c #202425",
"iX c #714F3C",
"pX c #74909B",
"aX c #472D1E",
"sX c #5C3F2E",
"dX c #352820",
"fX c #728D98",
"gX c #9E765C",
"hX c #7C97A3",
"jX c #242F34",
"kX c #775440",
"lX c #9F785D",
"zX c #6C7D85",
"xX c #7A5944",
"cX c #26373E",
"vX c #987259",
"bX c #9B755C",
"nX c #B0876B",
"mX c #77553F",
"MX c #394A50",
"NX c #000001",
"BX c #000101",
"VX c #BF9375",
"CX c #18292F",
"ZX c #A2C5D4",
"AX c #A47B61",
"SX c #A37C63",
"DX c #2E3C42",
"FX c #718B95",
"GX c #728C97",
"HX c #A98269",
"JX c #88A6B3",
"KX c #886650",
"LX c #2A3B41",
"PX c #2B3D44",
"IX c #181B1B",
"UX c #403C37",
/* pixels */
". . . . . . . . . . . . . . . . . . . . J . . . . . . . . . ! . . y . . . . . . . . . J . . . . . . . . . . . . . . . . . . . . ",
". UXUXUXUXUXUXUXUXUXUXUXUXUXUXUX. . . UXUXUX. . UXUXUXUXUX. #X. . _ t.UXUXUXUXUX. . UXUXUX. . . UXUXUXUXUXUXUXUXUXUXUXUXUXUXUX. ",
". UXUXUXUXUXUXUXUXUXUXUXUXUXUXUX. t.UXUXS . . . UXUXUXUX{ . @ . . @ BX* UXUXUXUX. . . S UXUXt.. UXUXUXUXUXUXUXUXUXUXUXUXUXUXUX. ",
". UXUXUXUXUXUXUXUXUXUXUXUXUXUXUX. UXUXS . . . . UXUXUX. 7X. i . . > . 2X. UXUXUX. . . . S UXUX. UXUXUXUXUXUXUXUXUXUXUXUXUXUXUX. ",
". UXUXUXUXUXUXUXUXUXUXUXUXUXUXUX. UXUX. . . . . UXUXY.Y.<X. #X. . 0 A.:.Y.Y.UXUX. . . . . UXUX. UXUXUXUXUXUXUXUXUXUXUXUXUXUXUX. ",
". UXUXUXUXUXUXUXUXUXUXUXUXUXUXUX. UXUX. . . . UXUXNXJ.# &.. -X. . -X. &.# J.. UXUX. . . . UXUX. UXUXUXUXUXUXUXUXUXUXUXUXUXUXUX. ",
". UXUXUXUXUXUXUXUXUXUXUXUXUXUXUX. UXUXUX. . UXUXl.{ kXj.&.. j . . DX. &.j.|.*  .UXUX. . UXUXUX. UXUXUXUXUXUXUXUXUXUXUXUXUXUXUX. ",
". UXUXr.N N N N N UXUXUXUXUXUXUX. UXUXUXUXUXUXUX-.2.8.<.&.. G . . @ . &.<.<.B.B UXUXUXUXUXUXUX. UXUXUXUXUXUXUXN N N N N r.UXUX. ",
". UX. . . . . . . UXUXUXUXUXUXUX. UXUXUXUXUXUXUX-.6.8.<.&.. _ . . > . &.<.8.wX-.UXUXUXUXUXUXUX. UXUXUXUXUXUXUX. . . . . . . UX. ",
". UX. . UXUXUXUX. . . UXUXUXUXUX. UXUXUXUXUXUXUX-.6.8.<.&.. 7 . . 0 . &.<.8.6.-.UXUXUXUXUXUXUX. UXUXUXUXUX. . . UXUXUXUX. . UX. ",
". . . UXUXUXUXUXUX. . UXUXUXUXUX. UXUXUXUXUXUXUX-.6.8.<.&.. f.. . jX. &.<.8.6.-.UXUXUXUXUXUXUX. UXUXUXUXUX. . UXUXUXUXUXUX. . . ",
". .  .UXUXUXUXUXUXUX. UXUXUXUXUX. UXUXUXUX. UXUX-.6.8.<.&.. 0 . . > . &.<.8.6.-.UXUX. UXUXUXUX. UXUXUXUXUX. UXUXUXUXUXUXUX .. . ",
". . UXUXUXr r.S UX. . UXUXUXUX. . UXUXUX2 . UXUX-.6.8.<.&.. G . . c . &.<.8.6.-.UXUX. 2 UXUXUX. . UXUXUXUX. . UXS r.r UXUXUX. . ",
". UXUXUXr.S . . . . . UXUXUXUX. . UXUXW B.. UXUX-.6.8.<.&.. i . . c . &.<.8.6.-.UXUX. B.@.UXUX. . UXUXUXUX. . . . . S r.UXUXUX. ",
". UXUXUX. . . . . . . UXUXUX. . UXUXdXX 9 . UXUX-.6.8.<.&.. > . . c . &.<.8.6.-.UXUX. 9 dXdXUXUX. . UXUXUX. . . . . . . UXUXUX. ",
". UXUXUX. . . . . . UXUXUXUX. . UX} eXq $.. UXUX-.6.8.<.&.. > . . c . &.<.8.6.-.UXUX. 1 # VX} UX. . UXUXUXUX. . . . . . UXUXUX. ",
". . . UXUX. . . . . UXUXUX. . UX@.{ z *.$.. UXUX-.6.8.<.&.. 0 . . > . &.<.8.6.-.UXUX. $.iXbX4 @.UX. . UXUXUX. . . . . UXUX. . . ",
"} d . UXUXUXUXUXUXUXUXUX. . . UXB ).xX*.$.. UXUX-.6.8.<.&.. G . . 0 . &.<.8.6.-.UXUX. $.*.`.).B UX. . . UXUXUXUXUXUXUXUXUX. X } ",
"tXK X . UXUXUXUXUXUXUX. . . UXUXB =.;.*.$.. UXUX-.6.8.<.&.. i . . G . &.<.8.6.-.UXUX. $.*.;.=.B UXUX. . . UXUXUXUXUXUXUX. U nXX ",
"; 1XHXX . . . . . . . . d A.UXUXB =.;.*.$.. UXUX-.6.8.<.&.. > . . i . &.<.8.6.-.UXUX. $.*.;.=.B UXUX. d . . . . . . . . U q gXU ",
"b 1XSX3XX . . . B b.d A vX. UXUXB =.;.*.$.. UXUX-.6.8.<.&.. #X. . #X. &.<.8.6.-.UXUX. $.*.;.=.B UXUX. # A d b.B . . . a rX# s ; ",
"b s `.q KX. UXUXU M.n lXM NXUXUXB =.;.*.$.. UXUX-.6.8.<.&.. G . . jX. &.<.8.6.-.UXUX. $.*.;.=.B UXUX. sXAXn M.U UXUX. :.mXz s b ",
"b >.4.5.aX. UXUX; /.6 rX:.. UXUXB =.;.*.$.. UXUX-.6.8.<.&.. i . . > . &.<.8.6.-.UXUX. $.*.;.=.B UXUX. 9 rX6 /.; UXUX. ,.5.4.>.b ",
"b >.1.h.>X. UXUX; 2.1.3.:.. UXUXB =.;.*.$.. UXUX-.6.8.<.&.. > . . c . &.<.8.6.-.UXUX. $.*.;.=.B UXUX. :.3.1.2.; UXUX. ,.5.4.>.b ",
"b >.4.j.qX. UXUX; 2.1.3.:.. UXUXB =.;.*.$.. UXUX-.6.8.<.&.. c . . > . &.<.8.6.-.UXUX. $.*.;.=.B UXUX. :.3.1.2.; UXUX. ,.5.4.>.b ",
"b >.4.5.,.. UXUX; 2.1.3.:.. UXUXB =.;.*.$.. UXUX-.6.8.<.&.. c . . @ . &.<.8.6.-.UXUX. $.*.;.=.B UXUX. :.3.1.2.; UXUX. ,.5.4.>.b ",
"b >.4.5.,.. UXUX; 2.1.3.:.. UXUXB =.;.*.$.. UXUX-.6.8.<.&.. c . . j . &.<.8.6.-.UXUX. $.*.;.=.B UXUX. :.3.1.2.; UXUX. ,.5.4.>.b ",
"b >.4.5.,.. UXUX; 2.1.3.:.. UXUXB =.;.*.$.. UXUX-.6.8.<.&.. #X. . #X. &.<.8.6.-.UXUX. $.*.;.=.B UXUX. :.3.1.2.; UXUX. ,.5.4.>.b ",
"b >.4.5.,.. UXUX; 2.1.3.:.. UXUXB =.;.*.$.. UXUX-.6.8.h..X0.@ 7.7.7 0..Xh.8.6.-.UXUX. $.*.;.=.B UXUX. :.3.1.2.; UXUX. ,.5.4.>.b ",
"b >.4.5.,.. UXUX; 2.1.3.:.. UXUXB =.;.*.$.. UXUX-.(.a.& [ MX, Z Z , MX[ & a.(.-.UXUX. $.*.;.=.B UXUX. :.3.1.2.; UXUX. ,.5.4.>.b ",
"b >.4.5.,.. UXUX; 2.1.3.:.. UXUXB =.;.*.$.. UXUX@.&X,X:XPXZX8 8 8 8 ZXDX:X,X&X@.UXUX. $.*.;.=.B UXUX. :.3.1.2.; UXUX. ,.5.4.>.b ",
"b >.4.5.,.. UXUX; 2.1.3.:.. UXUXB =.;.*.$.. UXUX| D cXL z.R u.u.u.u.R 0XL u D | UXUX. $.*.;.=.B UXUX. :.3.1.2.; UXUX. ,.5.4.>.b ",
"b >.4.5.,.. UXUX; 2.1.3.:.. UXUXB =.;.*.$.. UXUX0 , 8X+ C 5 . . . . 5 C + 8 L 0 UXUX. $.*.;.=.B UXUX. :.3.1.2.; UXUX. ,.5.4.>.b ",
"b >.4.5.,.. UXUX; 2.1.3.:.. UXUXB =.;.*.$.. UXUX@ 5Xg Y - 5 . . . . 5 - Y R JX0 UXUX. $.*.;.=.B UXUX. :.3.1.2.; UXUX. ,.5.4.>.b ",
"b >.4.5.,.. UXUX; 2.1.3.:.. UXUXB =.;.*.$.. UXUX0 hX5 - - 5 ] . . ] 5 - - 5 + 0 UXUX. $.*.;.=.B UXUX. :.3.1.2.; UXUX. ,.5.4.>.b ",
"b >.4.5.,.. UXUX; 2.1.3.:.. UXUXB =.;.*.$.. UXUX0 + 5 - - - Z.. . Z.- - - 5 + 0 UXUX. $.*.;.=.B UXUX. :.3.1.2.; UXUX. ,.5.4.>.b ",
"b >.4.5.,.. UXUX; 2.1.3.:.. UXUXB =.;.*.$.. UXUX0 + 5 - - $ 3 . . 3 $ - - 5 + 0 UXUX. $.*.;.=.B UXUX. :.3.1.2.; UXUX. ,.5.4.>.b ",
"b >.4.5.,.. UXUX; 2.1.3.:.. UXUXB =.;.*.$.. UXUX0 + O - - 3 . . . . 3 - - 5 z.0 UXUX. $.*.;.=.B UXUX. :.3.1.2.; UXUX. ,.5.4.>.b ",
"b >.4.5.,.. UXUX; 2.1.3.:.. UXUXB =.;.*.$.. UXUX0 z.=X5 O . . . . . . O - o FX0 UXUX. $.*.;.=.B UXUX. :.3.1.2.; UXUX. ,.5.4.>.b ",
"b >.4.5.,.. UXUX; 2.1.3.:.. UXUXB =.;.*.$.. UXUX> GXfX=XO . . . . . . O $ < e f.UXUX. $.*.;.=.B UXUX. :.3.1.2.; UXUX. ,.5.4.>.b ",
"b >.4.5.,.. UXUX; 2.1.3.:.. UXUXB =.;.*.$.. UXUX. IXe pX5 ! ! ! ! ! ! $ g e uX. UXUX. $.*.;.=.B UXUX. :.3.1.2.; UXUX. ,.5.4.>.b ",
"b >.4.5.,.. UXUX; 2.1.3.:.. UXUXB =.;.*.$.. UXUX@.V E.f.Y < y.y.y.y.< < f.E.V @.UXUX. $.*.;.=.B UXUX. :.3.1.2.; UXUX. ,.5.4.>.b ",
"b >.4.5.,.. UXUX; 2.1.3.:.. UXUXB =.;.*.$.. UXUX@.M V P.> zXo o o $ < > 4XV M @.UXUX. $.*.;.=.B UXUX. :.3.1.2.; UXUX. ,.5.4.>.b ",
"b >.4.5.,.. UXUX; 2.1.3.:.. UXUXB =.;.*.$.. UXUX-.k.M H 9XyX< < < g e P.V H k.-.UXUX. $.*.;.=.B UXUX. :.3.1.2.; UXUX. ,.5.4.>.b ",
"b >.4.5.,.. UXUX; 2.1.3.:.. UXUXB =.;.*.$.. UXUX-.k.d.M H e y y y y f.H M M p -.UXUX. $.*.;.=.B UXUX. :.3.1.2.; UXUX. ,.5.4.>.b ",
"b >.4.5.,.. UXUX; 2.1.3.:.. UXUXB =.;.*.$.. UXUX-.6.8.~.V . . . . . . V ~.h 6.-.UXUX. $.*.;.=.B UXUX. :.3.1.2.; UXUX. ,.5.4.>.b ",
"b >.4.5.,.. UXUX; 2.1.3.:.. UXUXB =.;.*.$.. UXUX-.6.8.<.}.. 7.. . 7.. }.<.8.6.-.UXUX. $.*.;.=.B UXUX. :.3.1.2.; UXUX. ,.5.4.>.b ",
"b >. Xn.,.. UXUX; 2.d.+X:.. UXUXB =.a.D.$.. UXUX-.6.q.<.&.. % . . % . &.<.q.6.-.UXUX. $.D.a.=.B UXUX. :.+Xd.2.; UXUX. ,.n. X>.b ",
"b W.@Xl I.s.UXUX; !.K.l _.7.UXUXB V.p.w f 7.UXUXW p p.<.&.. c . . c . &.<.p.p W UXUX7.f w p.V.B UXUX7._.l K.!.; UXUXs.I.l @XW.b ",
"+.c.i.v.e.r x x r e.i.v e.r x x r e.v v ( r x x r R.( z &.. c . . c . &.z ( R.r x x r ( v v e.r x x r e.v i.e.r x x r e.v.i.c.+.",
". y U.T.. . . . . ] [.G.. . . . . / L.F . . . . . . @.q.&.. % . . c . &.q.@.. . . . . . F L./ . . . . . G.[.] . . . . . T.U.y . ",
". ] XX^.. . . . . ! XX3 . . . . . / - : . . . . . . W q.&.. E . . c . &.q.W . . . . . . : $ / . . . . . 3 XX! . . . . . ^.XX] . ",
". | oXOX. . . . . / u '.. . . . . 7.6XLX. . . . . . W q.&.. > . . % . &.q.W . . . . . . CXu s.. . . . . '.u / . . . . . OXoX| . ",
"l.W W W -.. . . A.W W W W . . . . W W W W . . . . W } q.&.. % . . G . &.q.} W . . . . W W W W . . . . W W W W A.. . . -.W W W l.",
"b k = F.9 . UXUX; C.= z 1 . UXUXB T q S.I . UXUX-.Q.q <.&.. E . . , . &.<.q Q.-.UXUX. I S.q T B UXUX. 1 z = C.; UXUX. 9 F.= k b ",
"b >.4.5.,.. UXUX; 2.1.3.:.. UXUXB =.;.*.$.. UXUX-.6.8.<.&.. c . . E . &.<.8.6.-.UXUX. $.*.;.=.B UXUX. :.3.1.2.; UXUX. ,.5.4.>.b ",
"b >.4.5.,.. UXUX; 2.1.3.:.. UXUXB =.;.*.$.. UXUX-.6.8.<.&.. c . . 7 . &.<.8.6.-.UXUX. $.*.;.=.B UXUX. :.3.1.2.; UXUX. ,.5.4.>.b ",
"b >.4.5.,.. UXUX; 2.1.3.:.. UXUXB =.;.*.$.. UXUX-.6.8.<.&.. c . . 7 . &.<.8.6.-.UXUX. $.*.;.=.B UXUX. :.3.1.2.; UXUX. ,.5.4.>.b ",
"b >.4.5.,.. UXUX; 2.1.3.:.. UXUXB =.;.*.$.. UXUX-.6.8.<.&.. E . . c . &.<.8.6.-.UXUX. $.*.;.=.B UXUX. :.3.1.2.; UXUX. ,.5.4.>.b ",
"b >.4.5.,.. UXUX; 2.1.3.:.. UXUXB =.;.*.$.. UXUX-.6.8.<.&.. @ . . c . &.<.8.6.-.UXUX. $.*.;.=.B UXUX. :.3.1.2.; UXUX. ,.5.4.>.b ",
"b >.4.5.,.. UXUX; 2.1.3.:.. UXUXB =.;.*.$.. UXUX-.6.8.<.&.. @ . . c . &.<.8.6.-.UXUX. $.*.;.=.B UXUX. :.3.1.2.; UXUX. ,.5.4.>.b ",
"b >.4.5.,.. UXUX; 2.1.3.:.. UXUXB =.;.*.$.. UXUX-.6.8.<.&.. E . . @ . &.<.8.6.-.UXUX. $.*.;.=.B UXUX. :.3.1.2.; UXUX. ,.5.4.>.b ",
"b >.1.*X,.. UXUX; ;XN.|.:.. UXUXB x.{.m.$.. UXUX-.%Xz ].&.. @ . . @ . &.].z %X-.UXUX. $.m.{.x.B UXUX. :.|.N.;X; UXUX. ,.*X1.>.b ",
". . . . . . UXUX. . . . . . UXUX. . . . . . UXUX. . . . . . c . . c . . . . . . UXUX. . . . . . UXUX. . . . . . UXUX. . . . . . "
};
