/* XPM */
static char *de78fbce7b9b4c1fd237e501da1b09ceco8Iy1laQJH7RoGv[] = {
/* columns rows colors chars-per-pixel */
"64 64 190 2 ",
"   c black",
".  c #FFD1D9",
"X  c white",
"o  c #1C1718",
"O  c gray1",
"+  c #010000",
"@  c #1D1819",
"#  c gray33",
"$  c #FEFEFE",
"%  c #32292B",
"&  c gray31",
"*  c #1F1A1B",
"=  c #E8E7E7",
"-  c #F4C8D0",
";  c #A09E9E",
":  c #020000",
">  c #922D2D",
",  c #514D4D",
"<  c #434343",
"1  c #B29298",
"2  c #030202",
"3  c #292223",
"4  c gray87",
"5  c #9D8186",
"6  c #912C2C",
"7  c gray25",
"8  c #4E4A4B",
"9  c #58484B",
"0  c #010101",
"q  c #932D2D",
"w  c #564649",
"e  c #352B2D",
"r  c #2D2526",
"t  c #9C9A9A",
"y  c #AFADAD",
"u  c #9A7F83",
"i  c #414141",
"p  c #504C4D",
"a  c #9B999A",
"s  c #AAA9A9",
"d  c #151112",
"f  c #070606",
"g  c #050404",
"h  c #544548",
"j  c #FBFBFB",
"k  c #302829",
"l  c #AEACAD",
"z  c #957A7F",
"x  c #505050",
"c  c gray26",
"v  c #31282A",
"b  c #B1AFAF",
"n  c #464646",
"m  c #B6B6B6",
"M  c #E6E6E6",
"N  c #ACAAAB",
"B  c gray5",
"V  c #E3E2E2",
"C  c #E1E0E0",
"Z  c #C50627",
"A  c #E7E6E7",
"S  c #FECCD5",
"D  c #514E4E",
"F  c #E9E8E8",
"G  c #B5949A",
"H  c gray3",
"J  c #534F50",
"K  c #444444",
"L  c #362C2E",
"P  c #0C0C0C",
"I  c #FCC8D1",
"U  c #987C81",
"Y  c #FDFDFD",
"T  c #57474A",
"R  c #373737",
"E  c #251E20",
"W  c #B49499",
"Q  c #B2B1B1",
"!  c #DDB5BC",
"~  c #F3F2F2",
"^  c #030101",
"/  c #040101",
"(  c gray7",
")  c #B89033",
"_  c #FFD0D9",
"`  c #C60B2B",
"'  c gray11",
"]  c #E4BBC2",
"[  c #060606",
"{  c #B58933",
"}  c #92777C",
"|  c #912D2D",
" . c #191919",
".. c #E8BEC5",
"X. c #7A6468",
"o. c #B58732",
"O. c gray28",
"+. c #B7B7B7",
"@. c #423638",
"#. c #321010",
"$. c #FECDD5",
"%. c #FECFD7",
"&. c gray32",
"*. c #1D1D1D",
"=. c #0B0B0B",
"-. c #040404",
";. c #EEC3CB",
":. c #020202",
">. c #3C3C3C",
",. c #101010",
"<. c #040303",
"1. c #393939",
"2. c #B39399",
"3. c #F5C9D1",
"4. c #7B6569",
"5. c #792525",
"6. c #8E2C2C",
"7. c #44383A",
"8. c #110E0E",
"9. c #902C2C",
"0. c #020101",
"q. c #201B1C",
"w. c #241E1F",
"e. c #B27F32",
"r. c #C50B2B",
"t. c #FBCDD5",
"y. c #FDCFD7",
"u. c #FDD0D8",
"i. c #FCCAD2",
"p. c #FBCED6",
"a. c #A5878C",
"s. c gray27",
"d. c #B07E31",
"f. c #DDDDDD",
"g. c gray71",
"h. c gray73",
"j. c #C60C2C",
"k. c #080303",
"l. c #050101",
"z. c #AF8F95",
"x. c #F7CAD2",
"c. c #ACACAC",
"v. c #31292A",
"b. c #E2E2E2",
"n. c #8C2B2B",
"m. c #FBC4CE",
"M. c #0C0A0B",
"N. c gray8",
"B. c #9E8187",
"V. c #8B7276",
"C. c #030203",
"Z. c #B29297",
"A. c #A19F9F",
"S. c #9A9899",
"D. c #FED0D8",
"F. c #0A0804",
"G. c #F1C6CD",
"H. c gray4",
"J. c gray88",
"K. c #2A2324",
"L. c #B6959B",
"P. c #0B0303",
"I. c #F9CCD4",
"U. c #ABA9AA",
"Y. c gray24",
"T. c #D94D65",
"R. c #100606",
"E. c #CD2340",
"W. c gray98",
"Q. c #F0C4CC",
"!. c #150606",
"~. c #B09096",
"^. c #535353",
"/. c #3A3A3A",
"(. c #C40627",
"). c #B88F33",
"_. c #C3A0A6",
"`. c #C29FA5",
"'. c #3E3E3E",
"]. c #A29FA0",
"[. c #0C0A0A",
"{. c #C40526",
"}. c #F3A8B5",
"|. c gray23",
" X c #1B1717",
".X c #F6CAD1",
"XX c #B07A32",
"oX c #9D9B9B",
"OX c #403436",
"+X c None",
/* pixels */
"+X+X+X+X+X+X+X+X+X+X+X+X+X+X+X+X+X+X+X+X+X+X+X+X+X+X+X+X+X+X+X+X+X+X+X+X+X+X+X+X+X+X+X+X+X+X+X+X+X+X+X+X+X+X+X+X+X+X+X+X+X+X+X+X",
"+X+X+X+X+X+X+X+X+X+X+X+X+X+X+X+X+X+X+X+X+X+X+X+X+X+X+X+X                          +X+X+X+X+X+X+X+X+X+X+X+X+X+X+X+X+X+X+X+X+X+X+X",
"+X+X+X+X+X+X+X+X+X+X+X+X+X+X+X+X+X+X+X+X+X+X+X+X+X                                      +X+X+X+X+X+X+X+X+X+X+X+X+X+X+X+X+X+X+X+X",
"+X+X+X+X+X+X+X+X+X+X+X+X+X+X+X+X+X+X+X+X+X+X                                              +X+X+X+X+X+X+X+X+X+X+X+X+X+X+X+X+X+X+X",
"+X+X+X+X+X+X+X+X+X+X+X+X+X+X+X+X+X+X+X+X                                                    +X+X+X+X+X+X+X+X+X+X+X+X+X+X+X+X+X+X",
"+X+X+X+X+X+X+X+X+X+X+X+X+X+X+X+X+X+X                                                          +X+X+X+X+X+X+X+X+X+X+X+X+X+X+X+X+X",
"+X+X+X+X+X+X+X+X+X+X+X+X+X+X+X+X                                                                +X+X+X+X+X+X+X+X+X+X+X+X+X+X+X+X",
"+X+X+X+X+X+X+X+X+X+X+X+X+X+X+X                                                                    +X+X+X+X+X+X+X+X+X+X+X+X+X+X+X",
"+X+X+X+X+X+X+X+X+X+X+X+X+X+X                                                                                +X+X+X+X+X+X+X+X+X+X",
"+X+X+X+X+X+X+X+X+X+X+X+X+X+X                                                                                +X+X+X+X+X+X+X+X+X+X",
"+X+X+X+X+X+X+X+X+X+X+X+X+X+X    . . S E.. . . G.`.X.v 0                                                   +X+X+X+X+X+X+X+X+X+X+X",
"+X+X+X+X+X+X+X+X+X+X+X+X+X+X    . . _ ` . . . . . . . ..V.v                                             +X+X+X+X+X+X+X+X+X+X+X+X",
"+X+X+X+X+X+X+X+X+X+X+X+X+X+X    . . %.Z }.. . . . . . . . . _.OX                                      +X+X+X+X+X+X+X+X+X+X+X+X+X",
"+X+X+X+X+X+X+X+X+X+X+X+X+X+X    . . _ j.r.` i.. . . . . . . . . L.3                                 +X+X+X+X+X+X+X+X+X+X+X+X+X+X",
"+X+X+X+X+X+X+X+X+X+X+X+X+X+X    . . . . m.{.I . . . . . . . . . . p.a.7.C.                        +X+X+X+X+X+X+X+X+X+X+X+X+X+X+X",
"+X+X+X+X+X+X+X+X+X+X+X+X+X+X    . . . . I (.. . . . . . . . . . . . . . ;.Z.4.@.d           +X+X+X+X+X+X+X+X+X+X+X+X+X+X+X+X+X+X",
"+X+X+X+X+X+X+X+X+X+X+X+X+X+X    . . . . $.Z . . . . . . . . . . . . . . . . . . . x.! !     +X+X+X+X+X+X+X+X+X+X+X+X+X+X+X+X+X+X",
"+X+X+X+X+X+X+X+X+X+X+X+X+X+X    . . . . S T.. . . . . . . . . . . . . . . . . . . . . .     +X+X+X+X+X+X+X+X+X+X+X+X+X+X+X+X+X+X",
"+X+X+X+X+X+X+X+X+X+X+X+X+X+X    . . . . . - 5 w 3 o 3 w 5 - . . . . . . . . - 5 w 3 o 3 d [.+X+X+X+X+X+X+X+X+X+X+X+X+X+X+X+X+X+X",
"+X+X+X+X+X+X+X+X+X+X+X+X+X+X    . . . . 1 k o o o o o o o k z.. . . . . . 1 k o o o o o o o o +X+X+X+X+X+X+X+X+X+X+X+X+X+X+X+X+X",
"+X+X+X+X+X+X+X+X+X+X+X+X+X+X    . . . z @ o 8 l A Y A l 8 o o } . . . . z @ o J Q F Y F Q J o o +X+X+X+X+X+X+X+X+X+X+X+X+X+X+X+X",
"+X+X+X+X+X+X+X+X+X+X+X+X+X+X    . . 1 @ * t $ X X X X X $ oX* @ 1 . . 1 @ * A.X X X X X X X ].q.o +X+X+X+X+X+X+X+X+X+X+X+X+X+X+X",
"+X+X+X+X+X+X+X+X+X+X+X+X+X+X    . 3.% o t X X X X X X X X X t o v.. . % o ; X X X X X X X X X ; o o +X+X+X+X+X+X+X+X+X+X+X+X+X+X",
"+X+X+X+X+X+X+X+X+X+X+X+X+X+X    . 5 o D $ X X X X X X X X X $ D o . . o , X X X X X X X X X X X , o +X+X+X+X+X+X+X+X+X+X+X+X+X+X",
"+X+X+X+X+X+X+X+X+X+X+X+X+X+X    . 9 o s X X X X b.< H < 4 X X U.o w 9 o y X X X X X 4 7 B < 4 X y o o +X+X+X+X+X+X+X+X+X+X+X+X+X",
"+X+X+X+X+X+X+X+X+X+X+X+X+X+X    . e o C X X X X O.      Y.X X V o e e o = X X X X X i       7 X = o o +X+X+X+X+X+X+X+X+X+X+X+X+X",
"+X+X+X+X+X+X+X+X+X+X+X+X+X+X    . E o ~ X X X X ,.      :.X X ~ o w.E o j X X X X X P       =.X j o o +X+X+X+X+X+X+X+X+X+X+X+X+X",
"+X+X+X+X+X+X+X+X+X+X+X+X+X+X    . L o C X X X X <       1.X X V o e L o = X X X X X K       K X = o o +X+X+X+X+X+X+X+X+X+X+X+X+X",
"+X+X+X+X+X+X+X+X+X+X+X+X+X+X    . 9 o s X X X X 4 < P '.f.X X s o T 9 o l X X X X X 4 /.[ c J.X y o o +X+X+X+X+X+X+X+X+X+X+X+X+X",
"+X+X+X+X+X+X+X+X+X+X+X+X+X+X    . B.o p $ X X X X X X X X X $ , o . . o p X X X X X X X X X X X p o +X+X+X+X+X+X+X+X+X+X+X+X+X+X",
"+X+X+X+X+X+X+X+X+X+X+X+X+X+X    . .X% o S.X X X X X X X X X a o % . . % o ; X X X X X X X X X ; o o +X+X+X+X+X+X+X+X+X+X+X+X+X+X",
"+X+X+X+X+X+X+X+X+X+X+X+X+X+X    . . G @ * a $ X X X X X $ a * @ 2.. . G @ * ; X X X X X X X ; * o +X+X+X+X+X+X+X+X+X+X+X+X+X+X+X",
"+X+X+X+X+X+X+X+X+X+X+X+X+X+X    . . . U @ o 8 N M j M N 8 o o z . . . . U @ o , b = W.= b , o o +X+X+X+X+X+X+X+X+X+X+X+X+X+X+X+X",
"+X+X+X+X+X+X+X+X+X+X+X+X+X+X    . . . . W % o o o o o o o % ~.. . . . . . W % o o o o o o o o +X+X+X+X+X+X+X+X+X+X+X+X+X+X+X+X+X",
"+X+X+X+X+X+X+X+X+X+X+X+X+X+X    . . . . . - u h r o r h u - . . . . . . . . - u h r o r d M.+X+X+X+X+X+X+X+X+X+X+X+X+X+X+X+X+X+X",
"+X+X+X+X+X+X+X+X+X+X+X+X+X+X    . . . . . . . . . . . . . . . . . . . . . . . . . . . .     +X+X+X+X+X+X+X+X+X+X+X+X+X+X+X+X+X+X",
"+X+X+X+X+X+X+X+X+X+X+X+X+X+X    . . . . . . . . . . . . . .             . . . . . . . .     +X+X+X+X+X+X+X+X+X+X+X+X+X+X+X+X+X+X",
"+X+X+X+X+X+X+X+X+X+X+X+X+X+X    . . . . . . . . . . . . . . . . . . . . . . . . . . . .     +X+X+X+X+X+X+X+X+X+X+X+X+X+X+X+X+X+X",
"+X+X+X+X+X+X+X+X+X+X+X+X+X+X    . . . . . . . . . . . . . . . . . . . . . . . . . . . .     +X+X+X+X+X+X+X+X+X+X+X+X+X+X+X+X+X+X",
"+X+X+X+X+X+X+X+X+X+X+X+X+X+X    . . . . . . . . . . . . . . . . . . . . . . . . . . . .     +X+X+X+X+X+X+X+X+X+X+X+X+X+X+X+X+X+X",
"+X+X+X+X+X+X+X+X+X+X+X+X+X+X    . . . . . . . . . . . . . . . . . . . . . . . . . . . .     +X+X+X+X+X+X+X+X+X+X+X+X+X+X+X+X+X+X",
"+X+X+X+X+X+X+X+X+X+X+X+X+X+X    . . . . . . . . . . . . . . . . . . . . . . . . . . . .     +X+X+X+X+X+X+X+X+X+X+X+X+X+X+X+X+X+X",
"+X+X+X+X+X+X+X+X+X+X+X+X+X+X                                                                +X+X+X+X+X+X+X+X+X+X+X+X+X+X+X+X+X+X",
"+X+X+X+X+X+X+X+X+X+X+X+X+X+X                                                                +X+X+X+X+X+X+X+X+X+X+X+X+X+X+X+X+X+X",
"+X+X+X+X+X+X+X+X+X+X+X+X+X+X+X+X+X+X+X+X+X+X+X+X+X    + k.d.e.o.).{     +X+X+X+X+X+X+X+X+X+X+X+X+X+X+X+X+X+X+X+X+X+X+X+X+X+X+X+X",
"+X+X+X+X+X+X+X+X+X+X+X+X+X+X+X+X+X+X+X+X+X+X+X+X+X    2 + + XX) ) F.0     +X+X+X+X+X+X+X+X+X+X+X+X+X+X+X+X+X+X+X+X+X+X+X+X+X+X+X",
"+X+X+X+X+X+X+X+X+X+X+X+X+X+X+X+X+X+X+X+X+X+X+X+X    ' # <.+ 9.q #.+         +X+X+X+X+X+X+X+X+X+X+X+X+X+X+X+X+X+X+X+X+X+X+X+X+X+X",
"+X+X+X+X+X+X+X+X+X+X+X+X+X+X+X+X+X+X+X+X+X+X+X      n # 2 : > q + + x (     +X+X+X+X+X+X+X+X+X+X+X+X+X+X+X+X+X+X+X+X+X+X+X+X+X+X",
"+X+X+X+X+X+X+X+X+X+X+X+X+X+X+X+X+X+X+X+X+X+X      *.# &.2 + > q : + & R   0 T +X+X+X+X+X+X+X+X+X+X+X+X+X+X+X+X+X+X+X+X+X+X+X+X+X",
"+X+X+X+X+X+X+X+X+X+X+X+X+X+X+X+X+X+X+X+X+XQ.. ] f n # x 2 : > q : + & s.  g . . +X+X+X+X+X+X+X+X+X+X+X+X+X+X+X+X+X+X+X+X+X+X+X+X",
"+X+X+X+X+X+X+X+X+X+X+X+X+X+X+X+X+X+X+X+X+X. . .  Xi # ^.2 ^ 6 > : + & c   -.. . +X+X+X+X+X+X+X+X+X+X+X+X+X+X+X+X+X+X+X+X+X+X+X+X",
"+X+X+X+X+X+X+X+X+X+X+X+X+X+X+X+X+X+X+X+X+X. . u.  >.# # f / 6.> l.+ & 7   g . . y.+X+X+X+X+X+X+X+X+X+X+X+X+X+X+X+X+X+X+X+X+X+X+X",
"+X+X+X+X+X+X+X+X+X+X+X+X+X+X+X+X+X+X+X+X. . . .   R # # g / n.6 ^ 0.& 7   0 . . D.      +X+X+X+X+X+X+X+X+X+X+X+X+X+X+X+X+X+X+X+X",
"+X+X+X+X+X+X+X+X+X+X+X+X+X+X+X+X+X+X+X+X. . . .   i & & ( R.5.6 P.+ x |.  f . . .                   +X+X+X+X+X+X+X+X+X+X+X+X+X+X",
"+X+X+X+X+X+X+X+X+X+X+X+X+X+X+X+X+X+X+X+X. . . I.            6 | !.8. .    K.. . t.      +X+X+X+X+X+X+X+X+X+X+X+X+X+X+X+X+X+X+X+X",
"+X+X+X+X+X+X+X+X+X+X+X+X+X+X+X+X+X+X+X+X+X+X+X                              +X+X+X+X+X+X+X+X+X+X+X+X+X+X+X+X+X+X+X+X+X+X+X+X+X+X",
"+X+X+X+X+X+X+X+X+X+X+X+X+X+X+X+X+X+X+X+X+X+X+X+X+X+XO O O +X+XO O O +X+X+X+X+X+X+X+X+X+X+X+X+X+X+X+X+X+X+X+X+X+X+X+X+X+X+X+X+X+X",
"+X+X+X+X+X+X+X+X+X+X+X+X+X+X+X+X+X+X+X+X+X+X+X+X+X+XO O O +X+XO O O +X+X+X+X+X+X+X+X+X+X+X+X+X+X+X+X+X+X+X+X+X+X+X+X+X+X+X+X+X+X",
"+X+X+X+X+X+X+X+X+X+X+X+X+X+X+X+X+X+X+X+X+X+X+X+X+X+XO O O +X+XO O O +X+X+X+X+X+X+X+X+X+X+X+X+X+X+X+X+X+X+X+X+X+X+X+X+X+X+X+X+X+X",
"+X+X+X+X+X+X+X+X+X+X+X+X+X+X+X+X+X+X+X+X+X+X+X+X+X+XO O O +X+XO O O +X+X+X+X+X+X+X+X+X+X+X+X+X+X+X+X+X+X+X+X+X+X+X+X+X+X+X+X+X+X",
"+X+X+X+X+X+X+X+X+X+X+X+X+X+X+X+X+X+X+X+X+X+X+X+X+X+XH.B N.+X+XH O O +X+X+X+X+X+X+X+X+X+X+X+X+X+X+X+X+X+X+X+X+X+X+X+X+X+X+X+X+X+X",
"+X+X+X+X+X+X+X+X+X+X+X+X+X+X+X+X+X+X+X+X+X+X+X+X+X+Xm +.c.+X+Xm h.g.+X+X+X+X+X+X+X+X+X+X+X+X+X+X+X+X+X+X+X+X+X+X+X+X+X+X+X+X+X+X",
"+X+X+X+X+X+X+X+X+X+X+X+X+X+X+X+X+X+X+X+X+X+X+X+X+X+XO O O O +XO O O O +X+X+X+X+X+X+X+X+X+X+X+X+X+X+X+X+X+X+X+X+X+X+X+X+X+X+X+X+X",
"+X+X+X+X+X+X+X+X+X+X+X+X+X+X+X+X+X+X+X+X+X+X+X+X+X+XO O O O +XO O O O +X+X+X+X+X+X+X+X+X+X+X+X+X+X+X+X+X+X+X+X+X+X+X+X+X+X+X+X+X"
};
