/* XPM */
static char *_d43297cb2c440d7833a99b7ab5e52cedt7gKybE85PyggBi[] = {
/* columns rows colors chars-per-pixel */
"64 64 29 1 ",
"  c gray85",
". c black",
"X c #191D2B",
"o c #EEC3B0",
"O c #DDDDDD",
"+ c #CC4B13",
"@ c #D8B723",
"# c #D49D85",
"$ c #090909",
"% c #3B4B55",
"& c #F4C7B3",
"* c #C90000",
"= c #65372D",
"- c white",
"; c #242835",
": c #603026",
"> c #010102",
", c #181C29",
"< c #000002",
"1 c #010101",
"2 c #CECECE",
"3 c #0B0B0B",
"4 c #060606",
"5 c gray6",
"6 c #1A1E2C",
"7 c #0C0C0C",
"8 c #1C202E",
"9 c #1D212E",
"0 c #403C37",
/* pixels */
"0000000000000000000000000000000000000000000000000000000000000000",
"0000000000000000000000000000000000000000000000000000000000000000",
"0000000000000000000000000000000000000000000000000000000000000000",
"0000000000000000000000000000000000000000000000000000000000000000",
"00000000000000000000000000..........0000000000000000000000000000",
"000000000000000000000000.............000000000000000000000000000",
"0000000000000000000000.................0000000000000000000000000",
"000000000000000000000...................000000000000000000000000",
"0000000000000000000.......................0000000000000000000000",
"000000000000000000.........................000000000000000000000",
"000000000000000000.....#....................00000000000000000000",
"00000000000000000.....####...................0000000000000000000",
"0000000000000000.....##oo#...................0000000000000000000",
"0000000000000000.....#oo*###.................0000000000000000000",
"000000000000000.....##oo*oo#..................000000000000000000",
"000000000000000.....#o***oo###................000000000000000000",
"000000000000000.....#o*oooooo#................000000000000000000",
"000000000000000.....#o*oooooo###..............000000000000000000",
"000000000000000.....#oooooooooo#.............0000000000000000000",
"000000000000000.....#o......ooo##............0000000000000000000",
"000000000000000.....#.OOOOOO.ooo.OOOOOO.....00000000000000000000",
"0000000000000000.....OOO-..OO.o.OOO-..OO....00000000000000000000",
"0000000000000000.....OOO.-.OO...OOO.-.OO...000000000000000000000",
"00000000000000000....OOO...OO...OOO...OO..0000000000000000000000",
"00000000000000000....OOO...OO.o.OOO...OO..0000000000000000000000",
"000000000000000000..o.OOOOOO.ooo.OOOOOO.o.0000000000000000000000",
"000000000000000000..oo......ooooo......oo.0000000000000000000000",
"0000000000000000000.oooooooooooooooooooo.00000000000000000000000",
"00000000000000000000.oooooooooooooooooo.000000000000000000000000",
"0000000000000000000......................00000000000000000000000",
"000000000000000000.++@@++@@++@@++@@++@@++.0000000000000000000000",
"000000000000000000.++@@++@@++@@++@@++@@++.00000000000..000000000",
"000000000000000000.++@@++@@++@@++@@++@@++.0000000000.:.000000000",
"000000000000000000.++@@++@@++@@++@@++@@++.000000000.:.0000000000",
"0000000000000000000......................000000000.:.00000000000",
"0000000000000000000.XXX.XXXXXXX.%%.XXXXX.00000000.:.000000000000",
"0000000000000000000.XXX.XXXXXXX.%%.XXXXX.0000000.:.0000000000000",
"0000000000000000000.XXX.XXXXXXX.%%.XXXXX.000000.:.00000000000000",
"0000000000000000000.XXX.XXXXXX..%%..XXXX.......:.000000000000000",
"0000000000000000000.XXX.XXXXXX.%%%%.XXXX.X.#oo..0000000000000000",
"0000000000000000000.XXX.XXXXXX.%%%%.XXXX.X.#oo.00000000000000000",
"0000000000000000000.XXX.XXXXXX.%%%%.XXXX.X.#o..00000000000000000",
"0000000000000000000.....XXXXX..%%%%..XXX......000000000000000000",
"0000000000000000000.###.XXXXX.%%%%%%.XXX.00000000000000000000000",
"0000000000000000000.ooo.XXXXX........XXX.00000000000000000000000",
"0000000000000000000..oo.XXXXX........XXX.00000000000000000000000",
"0000000000000000000.X...XXXX..........XX..0000000000000000000000",
"000000000000000000..XXXXXXXX..........XXX.0000000000000000000000",
"000000000000000000.XXXXXXXX............XX.0000000000000000000000",
"00000000000000000.XXXXXXXXX.XXXXX....X.XXX.000000000000000000000",
"00000000000000000..........................000000000000000000000",
"000000000000000000000000....00000....000000000000000000000000000",
"000000000000000000000000....00000....000000000000000000000000000",
"000000000000000000000000....00000....000000000000000000000000000",
"000000000000000000000000....00000....000000000000000000000000000",
"000000000000000000000000....00000....000000000000000000000000000",
"000000000000000000000000.....0000.....00000000000000000000000000",
"0000000000000000000000000000000000000000000000000000000000000000",
"0000000000000000000000000000000000000000000000000000000000000000",
"0000000000000000000000000000000000000000000000000000000000000000",
"0000000000000000000000000000000000000000000000000000000000000000",
"0000000000000000000000000000000000000000000000000000000000000000",
"0000000000000000000000000000000000000000000000000000000000000000",
"0000000000000000000000000000000000000000000000000000000000000000"
};
