/* XPM */
static char *_53f6f4f4958471980071f2bda4d97f4iWLcEpp9Oicf5ogn[] = {
/* columns rows colors chars-per-pixel */
"128 128 26 1 ",
"  c #A67C52",
". c #1EA71E",
"X c #956841",
"o c #3CCB3C",
"O c #8A5C36",
"+ c #42D242",
"@ c #BE9568",
"# c #48ED48",
"$ c #32BF32",
"% c #62F562",
"& c #5DA63E",
"* c #92633A",
"= c #C09566",
"- c #BD9264",
"; c #AE8458",
": c #A0744B",
"> c #95663D",
", c #B0855A",
"< c #A5774C",
"1 c #9D7148",
"2 c #9F7349",
"3 c #B1875B",
"4 c #478B27",
"5 c #71BB50",
"6 c #93653C",
"7 c #BE9365",
/* pixels */
"%%%%%%%%%%%%%%%%%%%%%%%%%%%%%%%%%%%%%%%%%%%%%%%%%%%%%%%%%%%%%%%%%%%%%%%%%%%%%%%%%%%%%%%%%%%%%%%%%%%%%%%%%%%%%%%%%%%%%%%%%%%%%%%%",
"%%%%%%%%%%%%%%%%%%%%%%%%%%%%%%%%%%%%%%%%%%%%%%%%%%%%%%%%%%%%%%%%%%%%%%%%%%%%%%%%%%%%%%%%%%%%%%%%%%%%%%%%%%%%%%%%%%%%%%%%%%%%%%%%",
"%%%%%%%%%%%%%%%%%%%%%%%%%%%%%%%%%%%%%%%%%%%%%%%%%%%%%%%%%%%%%%%%%%%%%%%%%%%%%%%%%%%%%%%%%%%%%%%%%%%%%%%%%%%%%%%%%%%%%%%%%%%%%%%%",
"%%%%%%%%%%%%%%%%%%%%%%%%%%%%%%%%%%%%%%%%%%%%%%%%%%%%%%%%%%%%%%%%%%%%%%%%%%%%%%%%%%%%%%%%%%%%%%%%%%%%%%%%%%%%%%%%%%%%%%%%%%%%%%%%",
"%%%%########################################################################################################################%%%%",
"%%%%########################################################################################################################%%%%",
"%%%%########################################################################################################################%%%%",
"%%%%########################################################################################################################%%%%",
"%%%%########################################################################################################################%%%%",
"%%%%########################################################################################################################%%%%",
"%%%%########################################################################################################################%%%%",
"%%%%########################################################################################################################%%%%",
"%%%%########################################################################################################################%%%%",
"%%%%########################################################################################################################%%%%",
"%%%%########################################################################################################################%%%%",
"%%%%########################################################################################################################%%%%",
"%%%%########################################################################################################################%%%%",
"%%%%########################################################################################################################%%%%",
"%%%%########################################################################################################################%%%%",
"%%%%########################################################################################################################%%%%",
"%%%%########################################################################################################################%%%%",
"%%%%########################################################################################################################%%%%",
"%%%%########################################################################################################################%%%%",
"%%%%########################################################################################################################%%%%",
"%%%%########################################################################################################################%%%%",
"%%%%########################################################################################################################%%%%",
"%%%%########################################################################################################################%%%%",
"%%%%########################################################################################################################%%%%",
"%%%%%%%%%%%%%%%%%%%%%%%%%%%%%%%%%%%%%%%%%%%%%%%%%%%%%%%%%%%%%%%%%%%%%%%%%%%%%%%%%%%%%%%%%%%%%%%%%%%%%%%%%%%%%%%%%%%%%%%%%%%%%%%%",
"%%%%%%%%%%%%%%%%%%%%%%%%%%%%%%%%%%%%%%%%%%%%%%%%%%%%%%%%%%%%%%%%%%%%%%%%%%%%%%%%%%%%%%%%%%%%%%%%%%%%%%%%%%%%%%%%%%%%%%%%%%%%%%%%",
"%%%%%%%%%%%%%%%%%%%%%%%%%%%%%%%%%%%%%%%%%%%%%%%%%%%%%%%%%%%%%%%%%%%%%%%%%%%%%%%%%%%%%%%%%%%%%%%%%%%%%%%%%%%%%%%%%%%%%%%%%%%%%%%%",
"%%%%%%%%%%%%%%%%%%%%%%%%%%%%%%%%%%%%%%%%%%%%%%%%%%%%%%%%%%%%%%%%%%%%%%%%%%%%%%%%%%%%%%%%%%%%%%%%%%%%%%%%%%%%%%%%%%%%%%%%%%%%%%%%",
"++++++++++++++++++++++++++++++++++++++++++++++++++++++++++++++++++++++++++++++++++++++++++++++++++++++++++++++++++++++++++++++++",
"++++++++++++++++++++++++++++++++++++++++++++++++++++++++++++++++++++++++++++++++++++++++++++++++++++++++++++++++++++++++++++++++",
"++++++++++++++++++++++++++++++++++++++++++++++++++++++++++++++++++++++++++++++++++++++++++++++++++++++++++++++++++++++++++++++++",
"++++++++++++++++++++++++++++++++++++++++++++++++++++++++++++++++++++++++++++++++++++++++++++++++++++++++++++++++++++++++++++++++",
"....$$$$$$$$$$$$$$$$$$$$$$$$$$$$$$$$$$$$$$$$$$$$$$$$$$$$$$$$$$$$$$$$$$$$$$$$$$$$$$$$$$$$$$$$$$$$$$$$$$$$$$$$$$$$$$$$$$$$$$$$++++",
"....$$$$$$$$$$$$$$$$$$$$$$$$$$$$$$$$$$$$$$$$$$$$$$$$$$$$$$$$$$$$$$$$$$$$$$$$$$$$$$$$$$$$$$$$$$$$$$$$$$$$$$$$$$$$$$$$$$$$$$$$++++",
"....$$$$$$$$$$$$$$$$$$$$$$$$$$$$$$$$$$$$$$$$$$$$$$$$$$$$$$$$$$$$$$$$$$$$$$$$$$$$$$$$$$$$$$$$$$$$$$$$$$$$$$$$$$$$$$$$$$$$$$$$++++",
"....$$$$$$$$$$$$$$$$$$$$$$$$$$$$$$$$$$$$$$$$$$$$$$$$$$$$$$$$$$$$$$$$$$$$$$$$$$$$$$$$$$$$$$$$$$$$$$$$$$$$$$$$$$$$$$$$$$$$$$$$++++",
"....$$$$$$$$$$$$$$$$$$$$$$$$$$$$$$$$$$$$$$$$$$$$$$$$$$$$$$$$$$$$$$$$$$$$$$$$$$$$$$$$$$$$$$$$$$$$$$$$$$$$$$$$$$$$$$$$$$$$$$$$++++",
"....$$$$$$$$$$$$$$$$$$$$$$$$$$$$$$$$$$$$$$$$$$$$$$$$$$$$$$$$$$$$$$$$$$$$$$$$$$$$$$$$$$$$$$$$$$$$$$$$$$$$$$$$$$$$$$$$$$$$$$$$++++",
"....$$$$$$$$$$$$$$$$$$$$$$$$$$$$$$$$$$$$$$$$$$$$$$$$$$$$$$$$$$$$$$$$$$$$$$$$$$$$$$$$$$$$$$$$$$$$$$$$$$$$$$$$$$$$$$$$$$$$$$$$++++",
"....$$$$$$$$$$$$$$$$$$$$$$$$$$$$$$$$$$$$$$$$$$$$$$$$$$$$$$$$$$$$$$$$$$$$$$$$$$$$$$$$$$$$$$$$$$$$$$$$$$$$$$$$$$$$$$$$$$$$$$$$++++",
"....$$$$$$$$$$$$$$$$$$$$$$$$$$$$$$$$$$$$$$$$$$$$$$$$$$$$$$$$$$$$$$$$$$$$$$$$$$$$$$$$$$$$$$$$$$$$$$$$$$$$$$$$$$$$$$$$$$$$$$$$++++",
"....$$$$$$$$$$$$$$$$$$$$$$$$$$$$$$$$$$$$$$$$$$$$$$$$$$$$$$$$$$$$$$$$$$$$$$$$$$$$$$$$$$$$$$$$$$$$$$$$$$$$$$$$$$$$$$$$$$$$$$$$++++",
"....$$$$$$$$$$$$$$$$$$$$$$$$$$$$$$$$$$$$$$$$$$$$$$$$$$$$$$$$$$$$$$$$$$$$$$$$$$$$$$$$$$$$$$$$$$$$$$$$$$$$$$$$$$$$$$$$$$$$$$$$++++",
"....$$$$$$$$$$$$$$$$$$$$$$$$$$$$$$$$$$$$$$$$$$$$$$$$$$$$$$$$$$$$$$$$$$$$$$$$$$$$$$$$$$$$$$$$$$$$$$$$$$$$$$$$$$$$$$$$$$$$$$$$++++",
"....$$$$$$$$$$$$$$$$$$$$$$$$$$$$$$$$$$$$$$$$$$$$$$$$$$$$$$$$$$$$$$$$$$$$$$$$$$$$$$$$$$$$$$$$$$$$$$$$$$$$$$$$$$$$$$$$$$$$$$$$++++",
"....$$$$$$$$$$$$$$$$$$$$$$$$$$$$$$$$$$$$$$$$$$$$$$$$$$$$$$$$$$$$$$$$$$$$$$$$$$$$$$$$$$$$$$$$$$$$$$$$$$$$$$$$$$$$$$$$$$$$$$$$++++",
"....$$$$$$$$$$$$$$$$$$$$$$$$$$$$$$$$$$$$$$$$$$$$$$$$$$$$$$$$$$$$$$$$$$$$$$$$$$$$$$$$$$$$$$$$$$$$$$$$$$$$$$$$$$$$$$$$$$$$$$$$++++",
"....$$$$$$$$$$$$$$$$$$$$$$$$$$$$$$$$$$$$$$$$$$$$$$$$$$$$$$$$$$$$$$$$$$$$$$$$$$$$$$$$$$$$$$$$$$$$$$$$$$$$$$$$$$$$$$$$$$$$$$$$++++",
"....$$$$$$$$$$$$$$$$$$$$$$$$$$$$$$$$$$$$$$$$$$$$$$$$$$$$$$$$$$$$$$$$$$$$$$$$$$$$$$$$$$$$$$$$$$$$$$$$$$$$$$$$$$$$$$$$$$$$$$$$++++",
"....$$$$$$$$$$$$$$$$$$$$$$$$$$$$$$$$$$$$$$$$$$$$$$$$$$$$$$$$$$$$$$$$$$$$$$$$$$$$$$$$$$$$$$$$$$$$$$$$$$$$$$$$$$$$$$$$$$$$$$$$++++",
"....$$$$$$$$$$$$$$$$$$$$$$$$$$$$$$$$$$$$$$$$$$$$$$$$$$$$$$$$$$$$$$$$$$$$$$$$$$$$$$$$$$$$$$$$$$$$$$$$$$$$$$$$$$$$$$$$$$$$$$$$++++",
"....$$$$$$$$$$$$$$$$$$$$$$$$$$$$$$$$$$$$$$$$$$$$$$$$$$$$$$$$$$$$$$$$$$$$$$$$$$$$$$$$$$$$$$$$$$$$$$$$$$$$$$$$$$$$$$$$$$$$$$$$++++",
"....$$$$$$$$$$$$$$$$$$$$$$$$$$$$$$$$$$$$$$$$$$$$$$$$$$$$$$$$$$$$$$$$$$$$$$$$$$$$$$$$$$$$$$$$$$$$$$$$$$$$$$$$$$$$$$$$$$$$$$$$++++",
"....$$$$$$$$$$$$$$$$$$$$$$$$$$$$$$$$$$$$$$$$$$$$$$$$$$$$$$$$$$$$$$$$$$$$$$$$$$$$$$$$$$$$$$$$$$$$$$$$$$$$$$$$$$$$$$$$$$$$$$$$++++",
"....$$$$$$$$$$$$$$$$$$$$$$$$$$$$$$$$$$$$$$$$$$$$$$$$$$$$$$$$$$$$$$$$$$$$$$$$$$$$$$$$$$$$$$$$$$$$$$$$$$$$$$$$$$$$$$$$$$$$$$$$++++",
"....$$$$$$$$$$$$$$$$$$$$$$$$$$$$$$$$$$$$$$$$$$$$$$$$$$$$$$$$$$$$$$$$$$$$$$$$$$$$$$$$$$$$$$$$$$$$$$$$$$$$$$$$$$$$$$$$$$$$$$$$++++",
"....$$$$$$$$$$$$$$$$$$$$$$$$$$$$$$$$$$$$$$$$$$$$$$$$$$$$$$$$$$$$$$$$$$$$$$$$$$$$$$$$$$$$$$$$$$$$$$$$$$$$$$$$$$$$$$$$$$$$$$$$++++",
"....$$$$$$$$$$$$$$$$$$$$$$$$$$$$$$$$$$$$$$$$$$$$$$$$$$$$$$$$$$$$$$$$$$$$$$$$$$$$$$$$$$$$$$$$$$$$$$$$$$$$$$$$$$$$$$$$$$$$$$$$++++",
"....$$$$$$$$$$$$$$$$$$$$$$$$$$$$$$$$$$$$$$$$$$$$$$$$$$$$$$$$$$$$$$$$$$$$$$$$$$$$$$$$$$$$$$$$$$$$$$$$$$$$$$$$$$$$$$$$$$$$$$$$++++",
"....$$$$$$$$$$$$$$$$$$$$$$$$$$$$$$$$$$$$$$$$$$$$$$$$$$$$$$$$$$$$$$$$$$$$$$$$$$$$$$$$$$$$$$$$$$$$$$$$$$$$$$$$$$$$$$$$$$$$$$$$++++",
"....$$$$$$$$$$$$$$$$$$$$$$$$$$$$$$$$$$$$$$$$$$$$$$$$$$$$$$$$$$$$$$$$$$$$$$$$$$$$$$$$$$$$$$$$$$$$$$$$$$$$$$$$$$$$$$$$$$$$$$$$++++",
"....$$$$$$$$$$$$$$$$$$$$$$$$$$$$$$$$$$$$$$$$$$$$$$$$$$$$$$$$$$$$$$$$$$$$$$$$$$$$$$$$$$$$$$$$$$$$$$$$$$$$$$$$$$$$$$$$$$$$$$$$++++",
"....$$$$$$$$$$$$$$$$$$$$$$$$$$$$$$$$$$$$$$$$$$$$$$$$$$$$$$$$$$$$$$$$$$$$$$$$$$$$$$$$$$$$$$$$$$$$$$$$$$$$$$$$$$$$$$$$$$$$$$$$++++",
"....$$$$$$$$$$$$$$$$$$$$$$$$$$$$$$$$$$$$$$$$$$$$$$$$$$$$$$$$$$$$$$$$$$$$$$$$$$$$$$$$$$$$$$$$$$$$$$$$$$$$$$$$$$$$$$$$$$$$$$$$++++",
"....$$$$$$$$$$$$$$$$$$$$$$$$$$$$$$$$$$$$$$$$$$$$$$$$$$$$$$$$$$$$$$$$$$$$$$$$$$$$$$$$$$$$$$$$$$$$$$$$$$$$$$$$$$$$$$$$$$$$$$$$++++",
"....$$$$$$$$$$$$$$$$$$$$$$$$$o++++++++o$$$$$$$$$$$$$$$$$$$$$$$$$$$$o+++++++o$$$$$$$$$$$$$$$$$$$$$o++++++o$$$$$$$$$$$$$$$$$$$++++",
"....$$$$$$$$$$$$$$$$$$$$$$$$o++++++++++o$$$$$$$$$$$$$$$$$$$$$$$$$$o+++++++++o$$$$$$$$$$$$$$$$$$$o++++++++o$$$$$$$$$$$$$$$$$$++++",
"....o$$$$$$$$$$$$$$$$$$$$$$o++++++++++++o$$$$$$$$$$$$$$$$$$$$$$$$o+++++++++++o$$$$$$$$$$$$$$$$$o++++++++++o$$$$$$$$$$$$$$$$o++++",
"....+o$$$$$$$$$$$$$$$$$$$$o++++++++++++++o$$$$$$$$$$$$$$$$$$$$$$o+++++++++++++o$$$$$$$$$$$$$$$o++++++++++++o$$$$$$$$$$$$$$o+++++",
"....++o$$$$$$$$$$$$$$$$$$o+++&OOOOOOOO&+++o$$$$$$$$$$$$$$$$$$$$o+++&OOOOOOO&+++o$$$$$$$$$$$$$o+++&OOOOOO&+++o$$$$$$$$$$$$o++++++",
"OOO4+++o$$$$$$$$$$$$$$$$o+++&OOOOOOOOOO&+++o$$$$$$$$$$$$$$$$$$o+++&OOOOOOOOO&+++o$$$$$$$$$$$o+++&OOOOOOOO&+++o$$$$$$$$$$o+++5@@@",
"OOOO&+++o$$$$$$$$$$$$$$o+++&OOOOOOOOOOOO&+++o$$$$$$$$$$$$$$$$o+++&OOOOOOOOOOO&+++o$$$$$$$$$o+++&OOOOOOOOOO&+++o$$$$$$$$o+++&@@@@",
"OOOOO&+++o$$$$$$$$$$$$o+++&OOOOOOOOOOOOOO&+++o$$$$$$$$$$$$$$o+++&OOOOOOOOOOOOO&+++o$$$$$$$o+++&OOOOOOOOOOOO&++++++++++++++&O@@@@",
"OOOOOO&+++o$$$$$$$$$$o+++&OOOX        XOOO&+++o$$$$$$$$$$$$o+++&OOOX       XOOO&+++++++++++++&OOOX      XOOO&++++++++++++&OO@@@@",
"OOOOOOO&++++++++++++++++&OOOX          XOOO&+++o$$$$$$$$$$o+++&OOOX         XOOO&+++++++++++&OOOX        XOOO&++++++++++&OOO@@@@",
"OOOOXOOO&++++++++++++++&OOOX            XOOO&++++++++++++++++&OOOX           XOOO&+++++++++&OOOX          XOOO&++++++++&OOOX@@@@",
"OOOO XOOO&++++++++++++&OOOX              XOOO&++++++++++++++&OOOX             XOOO&+++++++&OOOX            XOOOOOOOOOOOOOOX @@@@",
"OOOO  XOOO&++++++++++&OOOX                XOOO&++++++++++++&OOOX               XOOOOOOOOOOOOOX              XOOOOOOOOOOOOX  @@@@",
"OOOO   XOOOOOOOOOOOOOOOOX                  XOOO&++++++++++&OOOX                 XOOOOOOOOOOOX                XOOOOOOOOOOX   @@@@",
"OOOO    XOOOOOOOOOOOOOOX                    XOOOOOOOOOOOOOOOOX                   XOOOOOOOOOX                  XOOOOOOOOX    @@@@",
"OOOO     XOOOOOOOOOOOOX                      XOOOOOOOOOOOOOOX                     XOOOOOOOX                                 @@@@",
"OOOO      XOOOOOOOOOOX                        XOOOOOOOOOOOOX                                                                @@@@",
"OOOO                                           XOOOOOOOOOOX                                                                 @@@@",
"OOOO                                                                                                                        @@@@",
"OOOO                                                                                                                        @@@@",
"OOOO                                                                                                                        @@@@",
"OOOO                                                                                                                        @@@@",
"OOOO                                                                                                                        @@@@",
"OOOO                                                                                                                        @@@@",
"OOOO                                                                                                                        @@@@",
"OOOO                                                                                                                        @@@@",
"OOOO                                                                       ******************                               @@@@",
"OOOO                                                                       =                *                               @@@@",
"OOOO                                                                       =                *                               @@@@",
"OOOO                                                                       =                *                               @@@@",
"OOOO                                                                       =                *                               @@@@",
"OOOO                                                                       =                *                               @@@@",
"OOOO                                                                       =                *                               @@@@",
"OOOO                                                                       =                *                               @@@@",
"OOOO                                                                       =                *                               @@@@",
"OOOO                                                                       =================*                               @@@@",
"OOOO                                                                                                                        @@@@",
"OOOO                                                                                                                        @@@@",
"OOOO                                                                                                                        @@@@",
"OOOO                                                                                                                        @@@@",
"OOOO                                                                                                                        @@@@",
"OOOO                        :>**>:                                                                                          @@@@",
"OOOO                       ;<1  26:                                                                                         @@@@",
"OOOO                       -3    2>                                                                                         @@@@",
"OOOO                       =      *                                                                                         @@@@",
"OOOO                       =      *                                                                                         @@@@",
"OOOO                       -,    1>                                                                                         @@@@",
"OOOO                       ;7,  3<:                                                                                         @@@@",
"OOOO                        ;-==-;                                                                                          @@@@",
"OOOO                                                                                                                        @@@@",
"OOOO                                                                                                                        @@@@",
"OOOO                                                                                                                        @@@@",
"OOOO                                                                                                                        @@@@",
"OOOO                                                                                                                        @@@@",
"OOOO                                                                                                                        @@@@",
"OOOOOOOOOOOOOOOOOOOOOOOOOOOOOOOOOOOOOOOOOOOOOOOOOOOOOOOOOOOOOOOOOOOOOOOOOOOOOOOOOOOOOOOOOOOOOOOOOOOOOOOOOOOOOOOOOOOOOOOOOOOO@@@@",
"OOOOOOOOOOOOOOOOOOOOOOOOOOOOOOOOOOOOOOOOOOOOOOOOOOOOOOOOOOOOOOOOOOOOOOOOOOOOOOOOOOOOOOOOOOOOOOOOOOOOOOOOOOOOOOOOOOOOOOOOOOOO@@@@",
"OOOOOOOOOOOOOOOOOOOOOOOOOOOOOOOOOOOOOOOOOOOOOOOOOOOOOOOOOOOOOOOOOOOOOOOOOOOOOOOOOOOOOOOOOOOOOOOOOOOOOOOOOOOOOOOOOOOOOOOOOOOO@@@@",
"OOOOOOOOOOOOOOOOOOOOOOOOOOOOOOOOOOOOOOOOOOOOOOOOOOOOOOOOOOOOOOOOOOOOOOOOOOOOOOOOOOOOOOOOOOOOOOOOOOOOOOOOOOOOOOOOOOOOOOOOOOOO@@@@"
};
