/* XPM */
static char *_e740a161471424cc56e8dea24987408AqXvhCxNBphlGGDW[] = {
/* columns rows colors chars-per-pixel */
"64 64 128 2 ",
"   c gray85",
".  c black",
"X  c #191D2B",
"o  c #EEC3B0",
"O  c #DDDDDD",
"+  c #6E6B5B",
"@  c #CC4B13",
"#  c #D8B723",
"$  c #090909",
"%  c #D49D85",
"&  c #3B4B55",
"*  c #6F6C5C",
"=  c #080807",
"-  c #706D5D",
";  c #F4C7B3",
":  c #65372D",
">  c #C90000",
",  c #020202",
"<  c #010101",
"1  c #918D79",
"2  c #716E5F",
"3  c #434037",
"4  c #5B594C",
"5  c #615D50",
"6  c #747161",
"7  c white",
"8  c #242835",
"9  c #060606",
"0  c #2E2D26",
"q  c #25241F",
"w  c #726F5F",
"e  c #090908",
"r  c #696658",
"t  c #555246",
"y  c #817E6C",
"u  c #686557",
"i  c #6D695A",
"p  c #24231E",
"a  c #5D5B4E",
"s  c #603026",
"d  c #282721",
"f  c #737060",
"g  c #0F0F0D",
"h  c #7E7B68",
"j  c #625F51",
"k  c #0C0C0A",
"l  c #2A2823",
"z  c #1E1D19",
"x  c #2B2A24",
"c  c #585649",
"v  c #161512",
"b  c #4F4D41",
"n  c #8B8673",
"m  c #37362E",
"M  c #10100E",
"N  c gray1",
"B  c #181C29",
"V  c #010102",
"C  c #767363",
"Z  c #272620",
"A  c #6B6759",
"S  c #797564",
"D  c #36352D",
"F  c #676456",
"G  c #000002",
"H  c #0A0A09",
"J  c #0D0D0C",
"K  c gray2",
"L  c #181715",
"P  c #656255",
"I  c #5C5A4D",
"U  c #827F6D",
"Y  c #636052",
"T  c #2C2B25",
"R  c #59574A",
"E  c #757262",
"W  c #444138",
"Q  c #1C1B17",
"!  c #45433A",
"~  c #1D1C18",
"^  c #525045",
"/  c #5F5C4F",
"(  c #504E43",
")  c #38372F",
"_  c #1F1E1B",
"`  c #646153",
"'  c #171614",
"]  c #CECECE",
"[  c #302F28",
"{  c #262520",
"}  c #33322B",
"|  c #4E4C40",
" . c #666355",
".. c #565347",
"X. c #151411",
"o. c #1A1E2C",
"O. c #23211D",
"+. c #7F7C69",
"@. c #0B0B0B",
"#. c #1C202E",
"$. c #8E8976",
"%. c #3C3A32",
"&. c #807D6B",
"*. c gray6",
"=. c #868270",
"-. c #21201C",
";. c #514F44",
":. c #84806E",
">. c #47453B",
",. c #4A483E",
"<. c #8D8875",
"1. c #1B1916",
"2. c #2F2E27",
"3. c #0C0C0C",
"4. c #121210",
"5. c #98947F",
"6. c #403E35",
"7. c #908C78",
"8. c #7A7665",
"9. c #49473D",
"0. c #94907C",
"q. c #34332B",
"w. c #1D212E",
"e. c #0E0E0C",
"r. c #35342C",
"t. c #3D3B33",
"y. c #928E7A",
"u. c None",
/* pixels */
"= 9 9 9 9 9 9 9 9 9 9 K , . . , K 9 9 9 9 9 9 9 9 9 9 9 9 9 9 9 9 9 9 9 9 9 9 9 9 9 9 9 9 9 K , . . < N 9 9 9 9 9 9 9 9 9 9 9 = ",
"= 3 1 1 1 1 1 1 1 1 1 F p . < q F 1 1 1 1 1 1 1 1 1 1 1 1 1 1 1 1 1 1 1 1 1 1 1 1 1 1 1 1 1 f [ N . L R 1 1 1 1 1 1 1 1 1 1 3 = ",
"= 3 h h h h h h h +.U + x < < T + U +.h h h h h h h h h h h h h h h h h h h h h h h h h h U S ) 9 . z 5 y &.h h h h h h h h 3 = ",
"= 3 i i i i i i i + - 5 l < , x 5 - i i i i i i i i i i i i i i i i i i i i i i i i i i i - u D 9 . z c - * i i i i i i i i 3 = ",
"= 3 + + + + + + + * 2 j l < , x j 2 + + + + + + + + + + + + + + + + + + + + + + + + + + + 2 r m 9 . z c 2 - + + + + + + + + 3 = ",
"= 3 + + + + + + + * 2 j l < , x j 2 + + + + + + + + + + + + + + + + + + + + + + + + + + + 2 r m 9 . z c 2 - + + + + + + + + 3 = ",
"= 3 + + + + + + + * 2 j l < , x j 2 + + + + + + + + + + + + + + + + + + + + + + + + + + + 2 r m 9 . z c 2 - + + + + + + + + 3 = ",
"= 3 + + + + + + + * 2 j l < , x j 2 + + + + + + + + + + + + + + + + + + + + + + + + + + + 2 r m 9 . z c 2 - + + + + + + + + 3 = ",
"= 3 + + + + + + + * 2 j l < , x j 2 + + + + + + + + + + + + + + + + + + + + + + + + + + + 2 r m 9 . z c 2 - + + + + + + + + 3 = ",
"= 3 + + + + + + + * 2 j l < , x j 2 + + + + + + + + + + + + + + + + + + + + + + + + + + + 2 r m 9 . z c 2 - + + + + + + + + 3 = ",
"= 3 + + + + + + + * 2 j l < , x j 2 + + + + + + + + + + + + + + + + + + + + + + + + + + + 2 r m 9 . z c 2 - + + + + + + + + 3 = ",
"= 3 * * * * * * * * w j l < , x Y w * * * * * * * * * * * * * * * * * * * * * * * * * * * w r m 9 . z c w 2 * * * * * * * * 3 = ",
"= 3 f f f f f f f 6 S ` d < < l P S f f f f f f f f f f f f f f f f f f f f f f f f f f f C + D 9 . ~ R C E f f f f f f f f 3 = ",
"= 3 4 4 4 4 4 4 4 4 a 4 } , , q.4 I 4 4 4 4 4 4 4 4 4 4 4 4 4 4 4 4 4 4 4 4 4 4 4 4 4 4 4 I / 6.k . { c I 4 4 4 4 4 4 4 4 4 3 = ",
"= p p p p p p p p p p Z Q , , Q Z p p p p p p p p p p p p p p p p p p p p p p p p p p p p O.Z _ 9 . X.Z p p p p p p p p p p p = ",
"= < < < < < < < < < < , < . . < , < < < < < < < < < < < < , N N N , < < < < < < < < < < < < < < . . < , < < < < < < < < < < < = ",
"= = = = = = = = = = = = = e e = = = = = = = = = = = = = = N . . . , = = = = = = = = = = = = = = e e e = = = = = = = = = = = = < ",
"= 3 * * * * * * * * * * * * * * * * * * * * * * * * * * w W M . e D A 2 * * * * * * * * * * * * * * * * * * * * * * * * * * 3 < ",
"= 3 y y y y y y y y y y y y y y y y y y y y y y y y y y =.R ' < J 9.h :.y y y y y y y y y y y y y y y y y y y y y y y y y y 3 < ",
"= 3 * * * * * * * * * * * * * * * * * * * * * * * * * * w ( v < k W + 2 * * * * * * * * * * * * * * * * * * * * * * * * * * 3 < ",
"= 3 + + + + + + + + + + + + + + + + + + + + + + + + + + 2 b v < k 3 A * + + + + + + + + + + + + + + + + + + + + + + + + + + 3 < ",
"= 3 + + + + + + + + + + + + + + + + + + + + + + + + + * 2 b v < k 3 i - + + + + + + + + + + + + + + + + + + + + + + + + + + 3 < ",
"= 3 + + + + + + + + + + + + + + + + + + + + + + + + + * 2 b v < k 3 i - + + + + + + + + + + + + + + + + + + + + + + + + + + 3 < ",
"= 3 + + + + + + + + + + + + + + + + + + + + + + + + + * 2 b v < k 3 i - + + + + + + + + + + + + + + + + + + + + + + + + + + 3 < ",
"= 3 + + + + + + + + + + + + + + + + + + + + + + + + + * 2 b v < k 3 i - + + + + + + + + + + + + + + + + + + + + + + + + + + 3 < ",
"= 3 + + + + + + + + + + + + + + + + + + + + + + + + + * 2 b v < k 3 i - + + + + + + + + + + + + + + + + + + + + + + + + + + 3 < ",
"= 3 + + + + + + + + + + + + + + + + + + + + + + + + + + 2 b v < k 3 A * + + + + + + + + + + + + + + + + + + + + + + + + + + 3 < ",
"= 3 2 2 2 2 2 2 2 2 2 2 2 2 2 2 2 2 2 2 2 2 2 2 2 2 2 2 6 b v < k 3 * w 2 2 2 2 2 2 2 2 2 2 2 2 2 2 2 2 2 2 2 2 2 2 2 2 2 2 3 < ",
"= 3 6 6 6 6 6 6 6 6 6 6 6 6 6 6 6 6 6 6 6 6 6 6 6 6 6 6 S ^ ' < k ! w C 6 6 6 6 6 6 6 6 6 6 6 6 6 6 6 6 6 6 6 6 6 6 6 6 6 6 3 < ",
"= 3 4 4 4 4 4 4 4 4 4 4 4 4 4 4 4 4 4 4 4 4 4 4 4 4 4 4 a ^ 1.< g ,.4 I 4 4 4 4 4 4 4 4 4 4 4 4 4 4 4 4 4 4 4 4 4 4 4 4 4 4 3 < ",
"= q q q q q q q q q q q q q q q q q q q q q q q q q q q q x M < H d q q q q q q q q q q q q q q q q q q q q q q q q q q q q q < ",
"= . . . . . . . . . . < , N N , < . . . . . . . . . . . . < . . . < . . . . . . . . . . . . . < , N , < . . . . . . . . . . . . ",
"= g g g g g g g g g M k , . . , J M g g g g g g g g g g M g M M M g g M g g g g g g g g g M e.K . . , H M M g g g g g g g g g g ",
"= 3 5 5 5 5 5 5 5 5 ` b Q . . ~ ( P j 5 5 5 5 5 5 5 5 5 5 5 5 5 5 5 5 5 5 5 5 5 5 5 5 5 5 P R Z N . 4.! ` Y 5 5 5 5 5 5 5 5 3 = ",
"= 3 n n n n n n n n 7.C 0 < < 2.C 1 1 1 1 1 1 1 1 1 1 1 1 1 1 1 1 1 1 1 1 1 1 1 1 1 1 1 1 1 U t.9 . _ F $.<.n n n n n n n n 3 = ",
"= 3 w w w w w w w f C P x < , 0 F C w w w w w w w w w w w w w w w w w w w w w w w w w w w C * ) 9 . z 4 E 6 w w w w w w w w 3 = ",
"= 3 r r r r r r r A + a l < , l / + r r r r r r r r r r r r r r r r r r r r r r r r r r r +  .D 9 . z ..+ A r r r r r r r r 3 = ",
"= 3 * * * * * * * * w j l < , x Y w * * * * * * * * * * * * * * * * * * * * * * * * * * * w r m 9 . z c w 2 * * * * * * * * 3 = ",
"= 3 + + + + + + + * 2 j l < , x j 2 + + + + + + + + + + + + + + + + + + + + + + + + + + + 2 r m 9 . z c 2 - + + + + + + + + 3 = ",
"= 3 + + + + + + + * 2 j l < , x j 2 + + + + + + + + + + + + + + + + + + + + + + + + + + + 2 r m 9 . z c 2 - + + + + + + + + 3 = ",
"= 3 + + + + + + + * 2 j l < , x j 2 + + + + + + + + + + + + + + + + + + + + + + + + + + + 2 r m 9 . z c 2 - + + + + + + + + 3 = ",
"= 3 + + + + + + + * 2 j l < , x j 2 + + + + + + + + + + + + + + + + + + + + + + + + + + + 2 r m 9 . z c 2 - + + + + + + + + 3 = ",
"= 3 + + + + + + + + 2 5 l < , x j 2 + + + + + + + + + + + + + + + + + + + + + + + + + + + 2 u m 9 . z c 2 * + + + + + + + + 3 = ",
"= 3 - - - - - - - 2 6 j l < , l Y f - - - - - - - - - - - - - - - - - - - - - - - - - - - f A D 9 . ~ c f w - - - - - - - - 3 = ",
"= 3 6 6 6 6 6 6 6 E S  .x < , T F 8.6 6 6 6 6 6 6 6 6 6 6 6 6 6 6 6 6 6 6 6 6 6 6 6 6 6 6 S * ) 9 . z 4 S C 6 6 6 6 6 6 6 6 3 = ",
"= 3 a a a a a a a a / 4 [ , , [ 4 5 a a a a a a a a a a a a a a a a a a a a a a a a a a a 5 a %.e . O.t 5 a a a a a a a a a 3 = ",
"= d d d d d d d d d Z 0 _ , , -.0 Z d d d d d d d d d d d d d d d d d d d d d d d d d d d Z T { = . L 0 d d d d d d d d d d d = ",
"= = = = = = = = = = = = = = = = = = = = = = = = = = = = = = = = = = = = = = = = = = = = = = = = = = = = = = = = = = = = = = = = ",
", e e e e e e e e e e = e H H e = e e e e e e e e e e e e K . . . , e e e e e e e e e e e e = e H H e = e e e e e e e e e e e , ",
", 3 t t t t t t t t t t t t t t t t t t t t t t t t t t c r.J . 9 l ^ ..t t t t t t t t t t t t t t t t t t t t t t t t t t 3 , ",
", 3 1 1 1 1 1 1 1 1 1 1 1 1 1 1 1 1 1 1 1 1 1 1 1 1 1 y.5.5 L < J | $.0.1 1 1 1 1 1 1 1 1 1 1 1 1 1 1 1 1 1 1 1 1 1 1 1 1 1 3 , ",
", 3 - - - - - - - - - - - - - - - - - - - - - - - - - 2 6 ;.' < J >.* w - - - - - - - - - - - - - - - - - - - - - - - - - - 3 , ",
", 3 u u u u u u u u u u u u u u u u u u u u u u u u u r + | v < k 3 F A u u u u u u u u u u u u u u u u u u u u u u u u u u 3 , ",
", 3 * * * * * * * * * * * * * * * * * * * * * * * * * * w b v < k 3 + 2 * * * * * * * * * * * * * * * * * * * * * * * * * * 3 , ",
", 3 + + + + + + + + + + + + + + + + + + + + + + + + + * 2 b v < k 3 i - + + + + + + + + + + + + + + + + + + + + + + + + + + 3 , ",
", 3 + + + + + + + + + + + + + + + + + + + + + + + + + * 2 b v < k 3 i - + + + + + + + + + + + + + + + + + + + + + + + + + + 3 , ",
", 3 + + + + + + + + + + + + + + + + + + + + + + + + + * 2 b v < k 3 i - + + + + + + + + + + + + + + + + + + + + + + + + + + 3 , ",
", 3 + + + + + + + + + + + + + + + + + + + + + + + + + * 2 b v < k 3 i - + + + + + + + + + + + + + + + + + + + + + + + + + + 3 , ",
", 3 + + + + + + + + + + + + + + + + + + + + + + + + + * 2 b v < k 3 i - + + + + + + + + + + + + + + + + + + + + + + + + + + 3 , ",
", 3 * * * * * * * * * * * * * * * * * * * * * * * * * * w b v < k 3 + 2 * * * * * * * * * * * * * * * * * * * * * * * * * * 3 , ",
", 3 - - - - - - - - - - - - - - - - - - - - - - - - - 2 f ( v < k W * w - - - - - - - - - - - - - - - - - - - - - - - - - - 3 , ",
", 3 5 5 5 5 5 5 5 5 5 5 5 5 5 5 5 5 5 5 5 5 5 5 5 5 5 5 j b L < J ! a j 5 5 5 5 5 5 5 5 5 5 5 5 5 5 5 5 5 5 5 5 5 5 5 5 5 5 3 , ",
", 0 0 0 0 0 0 0 0 0 0 0 0 0 0 0 0 0 0 0 0 0 0 0 0 0 0 0 T D X.< k } 0 0 0 0 0 0 0 0 0 0 0 0 0 0 0 0 0 0 0 0 0 0 0 0 0 0 0 0 q , ",
", , , , , , , , , , , , , , , , , , , , , , , , , , , , , N < . < K , , , , , , , , , , , , < , , , , , , , , , , , , , , , , , "
};
